<svg id="Layer_1" data-name="Layer 1" xmlns="http://www.w3.org/2000/svg" xmlns:xlink="http://www.w3.org/1999/xlink" viewBox="0 0 334 334"><defs><style>.cls-1{fill:url(#linear-gradient);}.cls-2{fill:#fff;}.cls-3{fill:url(#linear-gradient-2);}.cls-4{fill:url(#linear-gradient-3);}.cls-5{fill:url(#linear-gradient-4);}.cls-6{fill:#30235b;}.cls-7{fill:#2fd3c7;}.cls-8{fill:url(#linear-gradient-5);}.cls-9{mask:url(#mask);}.cls-10{opacity:0.1;}.cls-10,.cls-18{isolation:isolate;}.cls-11{fill:url(#linear-gradient-6);}.cls-12,.cls-19{fill:#111;}.cls-13{fill:#210d02;}.cls-14{fill:#24c28a;}.cls-15{mask:url(#mask-2);}.cls-16{fill:#e8e8e8;}.cls-17{mask:url(#mask-3);}.cls-18{fill:#e6fcff;opacity:0.5;}.cls-19,.cls-22,.cls-23,.cls-24,.cls-25{fill-rule:evenodd;}.cls-20{fill:#b4b4b4;}.cls-21{fill:url(#linear-gradient-7);}.cls-22{fill:url(#linear-gradient-8);}.cls-23{fill:url(#linear-gradient-9);}.cls-24{fill:url(#linear-gradient-10);}.cls-25{fill:url(#linear-gradient-11);}.cls-26{fill:#2f235a;}.cls-27{fill:#fe9076;}.cls-28{fill:#ffa400;}.cls-29{fill:#23bb86;}.cls-30,.cls-31,.cls-32,.cls-34,.cls-35,.cls-36,.cls-37,.cls-38{fill:none;}.cls-30{stroke:#fe9076;}.cls-30,.cls-31,.cls-32{stroke-linecap:round;stroke-width:1.6px;}.cls-31{stroke:#ffa400;}.cls-32{stroke:#23bb86;}.cls-33{fill:#ffbcbc;}.cls-34,.cls-35,.cls-36,.cls-37,.cls-38{stroke:#f7f7f7;}.cls-34{stroke-width:0.65px;}.cls-35{stroke-width:0.57px;}.cls-36{stroke-width:0.39px;}.cls-37{stroke-width:0.32px;}.cls-38{stroke-width:0.7px;}</style><linearGradient id="linear-gradient" x1="120.87" y1="161.86" x2="120.87" y2="130.25" gradientTransform="matrix(1, 0, 0, -1, 0, 336)" gradientUnits="userSpaceOnUse"><stop offset="0" stop-color="#d29257"/><stop offset="1" stop-color="#341707"/></linearGradient><linearGradient id="linear-gradient-2" x1="253.77" y1="207.82" x2="255.86" y2="69.02" gradientTransform="matrix(1, 0, 0, -1, 0, 336)" gradientUnits="userSpaceOnUse"><stop offset="0" stop-color="#f07d13"/><stop offset="1" stop-color="#210d02"/></linearGradient><linearGradient id="linear-gradient-3" x1="119.62" y1="174.73" x2="109.84" y2="-21.25" gradientTransform="matrix(1, 0, 0, -1, 0, 336)" gradientUnits="userSpaceOnUse"><stop offset="0" stop-color="#263294"/><stop offset="1" stop-color="#141b56"/></linearGradient><linearGradient id="linear-gradient-4" x1="56.9" y1="92.57" x2="57.89" y2="10.71" xlink:href="#linear-gradient-2"/><linearGradient id="linear-gradient-5" x1="120.86" y1="161.86" x2="120.86" y2="130.25" xlink:href="#linear-gradient"/><mask id="mask" x="98.1" y="149.42" width="46.6" height="59.92" maskUnits="userSpaceOnUse"><g id="mask0_531_137" data-name="mask0 531 137"><path class="cls-1" d="M103.88,199.17l2.87-28.53h27.89l3.21,28.59c-1.12,3.36-6.42,10.12-16.22,10.12C109.16,209.35,104.68,202.53,103.88,199.17Z"/></g></mask><linearGradient id="linear-gradient-6" x1="121.55" y1="223.98" x2="121.55" y2="161.07" xlink:href="#linear-gradient"/><mask id="mask-2" x="75.53" y="125.35" width="29.4" height="39.95" maskUnits="userSpaceOnUse"><g id="mask1_531_137" data-name="mask1 531 137"><rect class="cls-2" x="77.39" y="129.28" width="13.31" height="34.55" rx="6.66" transform="translate(-24.29 16.92) rotate(-10.05)"/></g></mask><mask id="mask-3" x="138.54" y="125.35" width="28.59" height="39.95" maskUnits="userSpaceOnUse"><g id="mask2_531_137" data-name="mask2 531 137"><rect class="cls-2" x="141.35" y="139.9" width="34.55" height="13.31" rx="6.66" transform="translate(-13.37 277.15) rotate(-79.95)"/></g></mask><linearGradient id="linear-gradient-7" x1="151.88" y1="153.16" x2="106.02" y2="-11.38" gradientTransform="matrix(1, 0, 0, -1, 0, 336)" gradientUnits="userSpaceOnUse"><stop offset="0.02" stop-color="#fff"/><stop offset="1" stop-color="#d7d7d7"/></linearGradient><linearGradient id="linear-gradient-8" x1="205.29" y1="203.09" x2="205.29" y2="188.97" gradientTransform="matrix(1, 0, 0, -1, 0, 336)" gradientUnits="userSpaceOnUse"><stop offset="0" stop-color="#ffe89e"/><stop offset="1" stop-color="#ffbf1a"/></linearGradient><linearGradient id="linear-gradient-9" x1="226.95" y1="219.25" x2="226.95" y2="209.85" xlink:href="#linear-gradient-8"/><linearGradient id="linear-gradient-10" x1="260.7" y1="233.4" x2="260.7" y2="219.28" xlink:href="#linear-gradient-8"/><linearGradient id="linear-gradient-11" x1="257.16" y1="173.74" x2="257.16" y2="152.96" xlink:href="#linear-gradient-8"/></defs><path class="cls-3" d="M232.32,235.19,201,216.79l-24.62,36.64c14.38,12,38.55,20.74,51,18.07C253,266,304.8,193.27,312,187.73c24.46-18.86,32.41-26,1.8-11.36-29.18,14-13.72,0-20.87,0-8.59.6-5.75,8.22-2.56,13.68Z"/><path class="cls-4" d="M54.45,207.32c8.84-6.15,43.79-17.21,59.14-22l16.24,1.77c10.23,2.53,32.17,6.86,42.26,10.95s28.42,17.14,45.51,28l-4,14A39.54,39.54,0,0,1,188,266.67C184.76,287,182,320,182.46,330.2L63.7,330.11l-5.44-50.23L33.81,282.5,13.15,266.67C39,221.93,43.39,215,54.45,207.32Z"/><path class="cls-5" d="M20.47,322.74C-17.16,318,7.32,279.83,14,267.23l12.4,10.44,29.11,2.59-5.31,12.25,57.32,13.42,8,22.31C109.83,327.26,67.27,328.67,20.47,322.74Z"/><path class="cls-6" d="M117.59,85.22c1.85-3.35,7.16-8,13.59,0Z"/><ellipse class="cls-7" cx="120.68" cy="199.95" rx="20.5" ry="14.61"/><path class="cls-8" d="M103.88,199.17l2.87-28.53h27.89l3.2,28.53c-1.11,3.36-6.4,10.17-16.19,10.17C109.17,209.34,104.68,202.53,103.88,199.17Z"/><g class="cls-9"><path class="cls-10" d="M144.69,171.73c-25.22,31.21-39.31,6.12-46.59,2.35l5-21.09L133,149.42Z"/></g><path class="cls-11" d="M120.19,182.09c-30.08,0-35.25-43.18-26-62.93,20.92-25.56,47.06-10.65,57.51,0C154.26,135.62,157,182.09,120.19,182.09Z"/><path class="cls-12" d="M152.26,149.06l-5.9-4.34.91-3.23,6.73,4.44Z"/><path class="cls-12" d="M90.85,147.8l5.9-4.34-.92-3.23-6.73,4.43Z"/><path class="cls-13" d="M96.25,121.76c21.32,13.89,45,5.79,54.12,0-1.93,6.08.8,17.76,2.41,22.85,13.88-18.07,9.34-27.83,5.34-30.45-.67-9-8.86-31.53-36.34-30.46s-32.82,20.56-32,27.79c-10.4,14.14-4.21,28,.81,33.12A47.4,47.4,0,0,0,96.25,121.76Z"/><path class="cls-2" d="M124,97.61c-31.84-1.07-38.93,19.87-39.88,32a1.87,1.87,0,0,1-1.85,1.74,1.77,1.77,0,0,1-1.78-1.91c1.39-15.59,9.7-42.83,43.51-40.95,34.14,1.89,40.82,29.07,39.77,44.22a1.54,1.54,0,0,1-1.55,1.42,1.66,1.66,0,0,1-1.64-1.6C160,120,151.68,98.41,124,97.61Z"/><path class="cls-14" d="M166.49,139.51h0a2.16,2.16,0,0,1,1.75,2.51l-2.14,12.07a2.16,2.16,0,0,1-2.5,1.75h0a2.15,2.15,0,0,1-1.75-2.5L164,141.26A2.16,2.16,0,0,1,166.49,139.51Z"/><rect class="cls-2" x="141.35" y="139.9" width="34.55" height="13.31" rx="6.66" transform="translate(-13.37 277.15) rotate(-79.95)"/><path class="cls-14" d="M76.29,139.51h0A2.16,2.16,0,0,0,74.54,142l2.14,12.07a2.16,2.16,0,0,0,2.5,1.75h0a2.15,2.15,0,0,0,1.75-2.5l-2.14-12.08A2.16,2.16,0,0,0,76.29,139.51Z"/><rect class="cls-2" x="77.38" y="129.28" width="13.31" height="34.55" rx="6.66" transform="translate(-24.29 16.92) rotate(-10.05)"/><g class="cls-15"><rect class="cls-16" x="84.46" y="126.57" width="17.31" height="37.5" transform="translate(-24.04 18.58) rotate(-10.1)"/></g><g class="cls-17"><rect class="cls-16" x="131.6" y="136.67" width="37.5" height="17.31" transform="translate(-19.09 267.86) rotate(-79.9)"/></g><path class="cls-18" d="M107.23,154.1a7.53,7.53,0,0,1-6.94-4.85,8.49,8.49,0,0,1,.36-7.11c1.89-3.29,10.75-4.21,13.85.45S114.5,154.1,107.23,154.1Z"/><path class="cls-18" d="M135.43,154.1a7.52,7.52,0,0,0,6.94-4.85,8.49,8.49,0,0,0-.36-7.11c-1.88-3.29-10.75-4.21-13.85.45S128.16,154.1,135.43,154.1Z"/><path class="cls-19" d="M116.7,141.56c-6.94-6.1-13.21-3.52-16.92-2-.42.17-.8.33-1.15.46H96.52a1,1,0,0,0-1,1l0,1.53a1,1,0,0,0,1,1H98c-1.22,10.45,6.49,13.25,12.66,11.37,5.5-1.68,7-6.44,7.26-9.42,1.18-2.61,6.34-1.4,6.54-.06l0,.11c.24,1.63,1.46,9.88,10.74,9.89,7.61,0,9.67-6.78,9.75-10.18l1.76,0a1,1,0,0,0,1-1l0-2a1,1,0,0,0-1-1l-1.76,0c-4.95-5-15.59-4.55-19.34.17A17.85,17.85,0,0,0,116.7,141.56Zm-9.47,12.54a7.53,7.53,0,0,1-6.94-4.85,8.49,8.49,0,0,1,.36-7.11c1.89-3.29,10.75-4.21,13.85.45S114.5,154.1,107.23,154.1Zm35.14-4.85a7.52,7.52,0,0,1-6.94,4.85c-7.27,0-10.37-6.86-7.27-11.51s12-3.74,13.85-.45A8.49,8.49,0,0,1,142.37,149.25Z"/><path class="cls-20" d="M61.18,326a.79.79,0,0,1,.8-.79H183.82a1.39,1.39,0,0,1,1.39,1.39h0a4.17,4.17,0,0,1-4.16,4.16H65.94A4.76,4.76,0,0,1,61.18,326Z"/><rect class="cls-21" x="61.18" y="244.26" width="124.02" height="82.98" rx="2.95"/><circle class="cls-2" cx="123.2" cy="285.75" r="8.82"/><path class="cls-22" d="M206.6,137.51a23.75,23.75,0,0,0-1.14-6.2,21.17,21.17,0,0,0-1.46,6.23,20.73,20.73,0,0,0-6.22,1.46,24.08,24.08,0,0,0,6.19,1.14,15.7,15.7,0,0,0,1.49,6.21,20.9,20.9,0,0,0,1.16-6.19,21.5,21.5,0,0,0,6.19-1.16A15.43,15.43,0,0,0,206.6,137.51Z"/><path class="cls-23" d="M227.82,119.81a15.61,15.61,0,0,0-.76-4.13,14.24,14.24,0,0,0-1,4.15,13.87,13.87,0,0,0-4.14,1,15.85,15.85,0,0,0,4.12.76,10.48,10.48,0,0,0,1,4.13,14.19,14.19,0,0,0,.78-4.12,14.23,14.23,0,0,0,4.12-.77A10.42,10.42,0,0,0,227.82,119.81Z"/><path class="cls-24" d="M262,107.2a23.83,23.83,0,0,0-1.14-6.2,21.17,21.17,0,0,0-1.46,6.23,21,21,0,0,0-6.22,1.46,23.65,23.65,0,0,0,6.19,1.14,15.7,15.7,0,0,0,1.49,6.21,21.23,21.23,0,0,0,1.16-6.19,21.17,21.17,0,0,0,6.19-1.16A15.6,15.6,0,0,0,262,107.2Z"/><path class="cls-25" d="M259.08,169a35.24,35.24,0,0,0-1.67-9.11,30.84,30.84,0,0,0-2.15,9.16,30.84,30.84,0,0,0-9.16,2.15,35.16,35.16,0,0,0,9.11,1.67,22.92,22.92,0,0,0,2.2,9.14,31.38,31.38,0,0,0,1.71-9.1,31.38,31.38,0,0,0,9.1-1.71A22.92,22.92,0,0,0,259.08,169Z"/><circle class="cls-26" cx="235.04" cy="145.62" r="1.45"/><circle class="cls-27" cx="201.69" cy="103.95" r="1.45"/><circle class="cls-28" cx="274.78" cy="139.85" r="1.45"/><circle class="cls-29" cx="209.65" cy="168.03" r="1.45"/><path class="cls-30" d="M205.25,97.89c3.29-4.51,12.54-14.15,23.28-16.61"/><path class="cls-31" d="M280.91,136c4.86-2.76,17.27-7.71,28.06-5.51"/><path class="cls-32" d="M214.64,172.25a65.8,65.8,0,0,1,12.52,15.81"/><path class="cls-33" d="M144.54,47.77c-1.65-2.54-5-1.15-5,1.62,0,2.08,4.57,5.34,5,5.76.41-.42,4.76-3.68,4.76-5.76,0-2.75-3.11-4.16-4.76-1.62Z"/><circle class="cls-34" cx="144.43" cy="50.79" r="10.82"/><path class="cls-33" d="M105.46,32.6c-1.46-2.26-4.41-1-4.41,1.42,0,1.85,4,4.73,4.41,5.1.36-.37,4.21-3.25,4.21-5.1,0-2.43-2.75-3.68-4.21-1.42Z"/><circle class="cls-35" cx="105.36" cy="35.27" r="9.58"/><path class="cls-33" d="M131.25,16a1.63,1.63,0,0,0-3,1c0,1.26,2.77,3.23,3,3.49.25-.26,2.88-2.23,2.88-3.49,0-1.67-1.88-2.52-2.88-1Z"/><circle class="cls-36" cx="131.18" cy="17.87" r="6.55"/><path class="cls-33" d="M85.69,7.47a1.33,1.33,0,0,0-2.47.8c0,1,2.27,2.64,2.47,2.85.21-.21,2.36-1.82,2.36-2.85a1.27,1.27,0,0,0-2.36-.8Z"/><circle class="cls-37" cx="85.64" cy="8.96" r="5.36"/><path class="cls-33" d="M81.68,66.57c-1.79-2.76-5.39-1.26-5.39,1.74,0,2.25,4.94,5.78,5.39,6.23.44-.45,5.14-4,5.14-6.23,0-3-3.36-4.5-5.14-1.74Z"/><circle class="cls-38" cx="81.56" cy="69.83" r="11.7"/></svg>