<svg id="Layer_1" data-name="Layer 1" xmlns="http://www.w3.org/2000/svg" xmlns:xlink="http://www.w3.org/1999/xlink" viewBox="0 0 334 334"><defs><style>.cls-1{fill:#141b56;}.cls-2{fill:url(#linear-gradient);}.cls-3{fill:url(#linear-gradient-2);}.cls-4{fill:url(#linear-gradient-3);}.cls-5{fill:url(#linear-gradient-4);}.cls-6{fill:#fff;}.cls-7{fill:url(#linear-gradient-5);}.cls-8{fill:url(#linear-gradient-6);}.cls-9{fill:url(#linear-gradient-7);}.cls-10{fill:url(#linear-gradient-8);}.cls-11{fill:url(#linear-gradient-9);}.cls-12{fill:url(#linear-gradient-10);}.cls-13{fill:url(#linear-gradient-11);}.cls-14{fill:url(#linear-gradient-12);}.cls-15{fill:url(#linear-gradient-13);}.cls-16{fill:url(#linear-gradient-14);}.cls-17{fill:url(#linear-gradient-15);}.cls-18{fill:url(#linear-gradient-16);}.cls-19{fill:url(#linear-gradient-17);}.cls-20{fill:url(#linear-gradient-18);}.cls-21{fill:url(#linear-gradient-19);}.cls-22{fill:url(#linear-gradient-20);}.cls-23{fill:url(#linear-gradient-21);}.cls-24{fill:url(#linear-gradient-22);}.cls-25{fill:url(#linear-gradient-23);}.cls-26{fill:url(#linear-gradient-24);}.cls-27{fill:url(#linear-gradient-25);}.cls-28{fill:url(#linear-gradient-26);}.cls-29{fill:url(#linear-gradient-27);}.cls-30{fill:url(#linear-gradient-28);}.cls-31{fill:url(#linear-gradient-29);}.cls-32{fill:url(#linear-gradient-30);}</style><linearGradient id="linear-gradient" x1="110.01" y1="171.75" x2="225.44" y2="171.75" gradientUnits="userSpaceOnUse"><stop offset="0" stop-color="#00e5ff"/><stop offset="0.06" stop-color="#33eaff"/><stop offset="0.12" stop-color="#68f0ff"/><stop offset="0.19" stop-color="#96f4ff"/><stop offset="0.25" stop-color="#bcf8ff"/><stop offset="0.32" stop-color="#d9fbff"/><stop offset="0.38" stop-color="#eefdff"/><stop offset="0.45" stop-color="#fbffff"/><stop offset="0.51" stop-color="#fff"/><stop offset="0.57" stop-color="#fbffff"/><stop offset="0.63" stop-color="#eefdff"/><stop offset="0.69" stop-color="#dafbff"/><stop offset="0.76" stop-color="#bcf8ff"/><stop offset="0.82" stop-color="#97f4ff"/><stop offset="0.88" stop-color="#69f0ff"/><stop offset="0.95" stop-color="#34eaff"/><stop offset="1" stop-color="#00e5ff"/></linearGradient><linearGradient id="linear-gradient-2" x1="26.06" y1="171.75" x2="57.54" y2="171.75" gradientUnits="userSpaceOnUse"><stop offset="0" stop-color="#fff"/><stop offset="1" stop-color="#00e5ff"/></linearGradient><linearGradient id="linear-gradient-3" x1="277.91" y1="171.75" x2="309.39" y2="171.75" gradientUnits="userSpaceOnUse"><stop offset="0" stop-color="#00e5ff"/><stop offset="1" stop-color="#fff"/></linearGradient><linearGradient id="linear-gradient-4" x1="85.51" y1="219.35" x2="249.71" y2="219.35" gradientUnits="userSpaceOnUse"><stop offset="0" stop-color="#fff"/><stop offset="0.05" stop-color="#d0faff"/><stop offset="0.12" stop-color="#99f5ff"/><stop offset="0.19" stop-color="#6af0ff"/><stop offset="0.25" stop-color="#44ecff"/><stop offset="0.32" stop-color="#26e9ff"/><stop offset="0.38" stop-color="#11e7ff"/><stop offset="0.44" stop-color="#04e5ff"/><stop offset="0.5" stop-color="#00e5ff"/><stop offset="0.56" stop-color="#04e5ff"/><stop offset="0.63" stop-color="#10e7ff"/><stop offset="0.69" stop-color="#25e9ff"/><stop offset="0.75" stop-color="#41ecff"/><stop offset="0.82" stop-color="#66efff"/><stop offset="0.88" stop-color="#93f4ff"/><stop offset="0.94" stop-color="#c8f9ff"/><stop offset="1" stop-color="#fff"/></linearGradient><linearGradient id="linear-gradient-5" x1="102.59" y1="96.17" x2="136.03" y2="96.17" xlink:href="#linear-gradient-2"/><linearGradient id="linear-gradient-6" x1="85.45" y1="124.1" x2="249.65" y2="124.1" xlink:href="#linear-gradient-4"/><linearGradient id="linear-gradient-7" x1="167.67" y1="48.72" x2="167.67" y2="89.02" xlink:href="#linear-gradient-2"/><linearGradient id="linear-gradient-8" x1="196.76" y1="96.93" x2="232.76" y2="96.93" xlink:href="#linear-gradient-3"/><linearGradient id="linear-gradient-9" x1="167.68" y1="133.4" x2="199.92" y2="133.4" gradientUnits="userSpaceOnUse"><stop offset="0" stop-color="#14a9eb"/><stop offset="1" stop-color="#14dceb"/></linearGradient><linearGradient id="linear-gradient-10" x1="135.44" y1="133.4" x2="167.68" y2="133.4" gradientUnits="userSpaceOnUse"><stop offset="0" stop-color="#0fd7e8"/><stop offset="1" stop-color="#0ff0e8"/></linearGradient><linearGradient id="linear-gradient-11" x1="135.44" y1="105.48" x2="199.92" y2="105.48" gradientUnits="userSpaceOnUse"><stop offset="0" stop-color="#d7ffe8"/><stop offset="1" stop-color="#0fffe8"/></linearGradient><linearGradient id="linear-gradient-12" x1="118.7" y1="142.72" x2="152.13" y2="142.72" xlink:href="#linear-gradient-2"/><linearGradient id="linear-gradient-13" x1="183.22" y1="142.72" x2="216.65" y2="142.72" xlink:href="#linear-gradient-3"/><linearGradient id="linear-gradient-14" x1="250.1" y1="181" x2="282.34" y2="181" xlink:href="#linear-gradient-9"/><linearGradient id="linear-gradient-15" x1="217.86" y1="181" x2="250.1" y2="181" xlink:href="#linear-gradient-10"/><linearGradient id="linear-gradient-16" x1="217.86" y1="153.08" x2="282.34" y2="153.08" xlink:href="#linear-gradient-11"/><linearGradient id="linear-gradient-17" x1="85.26" y1="181" x2="117.5" y2="181" xlink:href="#linear-gradient-9"/><linearGradient id="linear-gradient-18" x1="53.02" y1="181" x2="85.26" y2="181" xlink:href="#linear-gradient-10"/><linearGradient id="linear-gradient-19" x1="53.02" y1="153.08" x2="117.5" y2="153.08" xlink:href="#linear-gradient-11"/><linearGradient id="linear-gradient-20" x1="201.12" y1="190.31" x2="234.56" y2="190.31" xlink:href="#linear-gradient-2"/><linearGradient id="linear-gradient-21" x1="100.8" y1="190.32" x2="134.23" y2="190.32" xlink:href="#linear-gradient-3"/><linearGradient id="linear-gradient-22" x1="167.67" y1="142.37" x2="167.67" y2="183.93" gradientUnits="userSpaceOnUse"><stop offset="0" stop-color="#00e5ff"/><stop offset="0.11" stop-color="#33eaff"/><stop offset="0.24" stop-color="#69f0ff"/><stop offset="0.37" stop-color="#97f4ff"/><stop offset="0.5" stop-color="#bcf8ff"/><stop offset="0.63" stop-color="#d9fbff"/><stop offset="0.76" stop-color="#eefdff"/><stop offset="0.88" stop-color="#fbffff"/><stop offset="1" stop-color="#fff"/></linearGradient><linearGradient id="linear-gradient-23" x1="167.68" y1="228.59" x2="199.92" y2="228.59" xlink:href="#linear-gradient-9"/><linearGradient id="linear-gradient-24" x1="135.44" y1="228.59" x2="167.68" y2="228.59" xlink:href="#linear-gradient-10"/><linearGradient id="linear-gradient-25" x1="135.44" y1="200.66" x2="199.92" y2="200.66" xlink:href="#linear-gradient-11"/><linearGradient id="linear-gradient-26" x1="167.67" y1="236.9" x2="167.67" y2="290.22" xlink:href="#linear-gradient-3"/><linearGradient id="linear-gradient-27" x1="106.6" y1="241.39" x2="152.14" y2="241.39" xlink:href="#linear-gradient-2"/><linearGradient id="linear-gradient-28" x1="183.21" y1="241.4" x2="228.75" y2="241.4" xlink:href="#linear-gradient-3"/><linearGradient id="linear-gradient-29" x1="36.36" y1="190.3" x2="69.76" y2="190.3" xlink:href="#linear-gradient-2"/><linearGradient id="linear-gradient-30" x1="265.65" y1="190.3" x2="299.08" y2="190.3" xlink:href="#linear-gradient-3"/></defs><path class="cls-1" d="M47.71,332.93h0c.69,0,1.38.09,2.08.09H284.19A48.84,48.84,0,0,0,333,284.21V49.8A48.84,48.84,0,0,0,284.19,1H49.8A48.83,48.83,0,0,0,1,49.8V284.21A48.79,48.79,0,0,0,47.71,332.93Z"/><path class="cls-2" d="M224.86,171.17h-2.33a.58.58,0,0,0,0,1.16h2.33a.58.58,0,1,0,0-1.16Zm-7,0h-2.33a.58.58,0,0,0,0,1.16h2.33a.58.58,0,1,0,0-1.16Zm-7,0h-2.33a.58.58,0,1,0,0,1.16h2.33a.58.58,0,1,0,0-1.16Zm-7,0h-2.33a.58.58,0,0,0,0,1.16h2.33a.58.58,0,1,0,0-1.16Zm-7,0h-2.33a.58.58,0,1,0,0,1.16h2.33a.58.58,0,0,0,0-1.16Zm-7,0h-2.33a.58.58,0,0,0,0,1.16h2.33a.58.58,0,0,0,0-1.16Zm-7,0h-2.34a.58.58,0,0,0,0,1.16h2.34a.58.58,0,0,0,0-1.16Zm-7,0h-2.33a.58.58,0,0,0,0,1.16h2.33a.58.58,0,0,0,0-1.16Zm-7,0h-2.33a.58.58,0,0,0,0,1.16h2.33a.58.58,0,1,0,0-1.16Zm-7,0h-2.33a.58.58,0,1,0,0,1.16h2.33a.58.58,0,1,0,0-1.16Zm-7,0h-2.33a.58.58,0,0,0,0,1.16h2.33a.58.58,0,1,0,0-1.16Zm-7,0h-2.34a.58.58,0,0,0,0,1.16h2.34a.58.58,0,0,0,0-1.16Zm-7,0h-2.33a.58.58,0,0,0,0,1.16h2.33a.58.58,0,0,0,0-1.16Zm-7,0h-2.33a.58.58,0,0,0,0,1.16h2.33a.58.58,0,1,0,0-1.16Zm-7,0h-2.33a.58.58,0,1,0,0,1.16h2.33a.58.58,0,0,0,0-1.16Zm-7,0h-2.33a.58.58,0,1,0,0,1.16h2.33a.58.58,0,1,0,0-1.16Zm-7,0H110.6a.58.58,0,1,0,0,1.16h2.33a.58.58,0,0,0,0-1.16Z"/><path class="cls-3" d="M57,171.17H54.63a.58.58,0,1,0,0,1.16H57a.58.58,0,1,0,0-1.16Zm-7,0H47.63a.58.58,0,1,0,0,1.16H50a.58.58,0,1,0,0-1.16Zm-7,0H40.64a.58.58,0,1,0,0,1.16H43a.58.58,0,1,0,0-1.16Zm-7,0H33.64a.58.58,0,0,0,0,1.16H36a.58.58,0,1,0,0-1.16Zm-7,0H26.65a.58.58,0,1,0,0,1.16H29a.58.58,0,1,0,0-1.16Z"/><path class="cls-4" d="M308.81,171.17h-2.33a.58.58,0,1,0,0,1.16h2.33a.58.58,0,1,0,0-1.16Zm-7,0h-2.33a.58.58,0,1,0,0,1.16h2.33a.58.58,0,1,0,0-1.16Zm-7,0h-2.34a.58.58,0,1,0,0,1.16h2.34a.58.58,0,1,0,0-1.16Zm-7,0h-2.33a.58.58,0,0,0,0,1.16h2.33a.58.58,0,1,0,0-1.16Zm-7,0h-2.34a.58.58,0,0,0,0,1.16h2.34a.58.58,0,0,0,0-1.16Z"/><path class="cls-5" d="M249.13,219.93H246.8a.58.58,0,1,1,0-1.16h2.33a.58.58,0,0,1,0,1.16Zm-7,0h-2.33a.58.58,0,1,1,0-1.16h2.33a.58.58,0,0,1,0,1.16Zm-7,0h-2.33a.58.58,0,0,1,0-1.16h2.33a.58.58,0,1,1,0,1.16Zm-7,0h-2.33a.58.58,0,0,1,0-1.16h2.33a.58.58,0,1,1,0,1.16Zm-7,0h-2.33a.58.58,0,0,1,0-1.16h2.33a.58.58,0,0,1,0,1.16Zm-7,0h-2.33a.58.58,0,1,1,0-1.16h2.33a.58.58,0,0,1,0,1.16Zm-7,0h-2.33a.58.58,0,1,1,0-1.16h2.33a.58.58,0,1,1,0,1.16Zm-7,0h-2.32a.58.58,0,1,1,0-1.16h2.32a.58.58,0,1,1,0,1.16Zm-7,0H190.9a.58.58,0,1,1,0-1.16h2.33a.58.58,0,0,1,0,1.16Zm-7,0h-2.33a.58.58,0,0,1,0-1.16h2.33a.58.58,0,1,1,0,1.16Zm-7,0h-2.34a.58.58,0,0,1,0-1.16h2.34a.58.58,0,0,1,0,1.16Zm-7,0h-2.33a.58.58,0,1,1,0-1.16h2.33a.58.58,0,1,1,0,1.16Zm-7,0H163a.58.58,0,0,1,0-1.16h2.33a.58.58,0,0,1,0,1.16Zm-7,0H156a.58.58,0,0,1,0-1.16h2.33a.58.58,0,1,1,0,1.16Zm-7,0H149a.58.58,0,1,1,0-1.16h2.33a.58.58,0,0,1,0,1.16Zm-7,0H142a.58.58,0,0,1,0-1.16h2.33a.58.58,0,0,1,0,1.16Zm-7,0H135a.58.58,0,0,1,0-1.16h2.33a.58.58,0,0,1,0,1.16Zm-7,0H128a.58.58,0,1,1,0-1.16h2.32a.58.58,0,1,1,0,1.16Zm-7,0H121a.58.58,0,1,1,0-1.16h2.33a.58.58,0,1,1,0,1.16Zm-7,0H114a.58.58,0,0,1,0-1.16h2.33a.58.58,0,1,1,0,1.16Zm-7,0h-2.33a.58.58,0,1,1,0-1.16h2.33a.58.58,0,1,1,0,1.16Zm-7,0h-2.33a.58.58,0,1,1,0-1.16h2.33a.58.58,0,1,1,0,1.16Zm-7,0H93.08a.58.58,0,1,1,0-1.16h2.33a.58.58,0,1,1,0,1.16Zm-7,0H86.09a.58.58,0,1,1,0-1.16h2.33a.58.58,0,1,1,0,1.16Z"/><path class="cls-6" d="M249.74,172.48a.61.61,0,0,1-.51-.29.59.59,0,0,1,.22-.8l.33-.19a.59.59,0,0,1,.8.21.59.59,0,0,1-.21.8l-.34.19A.51.51,0,0,1,249.74,172.48Zm4.37-2.52a.56.56,0,0,1-.5-.29.59.59,0,0,1,.21-.8l2-1.16a.58.58,0,0,1,.79.21.59.59,0,0,1-.21.8l-2,1.16A.51.51,0,0,1,254.11,170Zm6.05-3.49a.58.58,0,0,1-.5-.29.59.59,0,0,1,.21-.8l2-1.16a.57.57,0,0,1,.79.21.59.59,0,0,1-.21.8l-2,1.16A.6.6,0,0,1,260.16,166.47Zm6-3.49a.59.59,0,0,1-.5-.29.59.59,0,0,1,.21-.8l2-1.16a.58.58,0,1,1,.58,1l-2,1.16A.6.6,0,0,1,266.21,163Zm6.06-3.49a.61.61,0,0,1-.51-.29.59.59,0,0,1,.22-.8l2-1.16a.59.59,0,0,1,.8.21.58.58,0,0,1-.22.79l-2,1.17A.6.6,0,0,1,272.27,159.49Zm6.05-3.49a.6.6,0,0,1-.51-.3.58.58,0,0,1,.22-.79l2-1.16a.57.57,0,0,1,.79.21.57.57,0,0,1-.21.79l-2,1.17A.6.6,0,0,1,278.32,156Zm6.05-3.5a.56.56,0,0,1-.5-.29.57.57,0,0,1,.21-.79l2-1.17a.58.58,0,0,1,.58,1l-2,1.17A.59.59,0,0,1,284.37,152.5Zm6.05-3.49a.58.58,0,0,1-.29-1.08l2-1.17a.59.59,0,0,1,.8.22.58.58,0,0,1-.22.79l-2,1.17A.66.66,0,0,1,290.42,149Zm6.06-3.49a.58.58,0,0,1-.3-1.08l2-1.17a.58.58,0,0,1,.59,1l-2,1.16A.51.51,0,0,1,296.48,145.52Z"/><path class="cls-6" d="M81.3,170a.6.6,0,0,1-.29-.08l-2-1.17a.58.58,0,1,1,.58-1l2,1.16a.59.59,0,0,1,.21.8A.61.61,0,0,1,81.3,170Zm-6-3.5a.55.55,0,0,1-.29-.08l-2-1.16a.58.58,0,1,1,.58-1l2,1.17a.58.58,0,0,1-.3,1.08Zm-6-3.49a.6.6,0,0,1-.29-.08l-2-1.17a.58.58,0,0,1-.22-.79.59.59,0,0,1,.8-.22l2,1.17a.59.59,0,0,1-.3,1.09Zm-6.05-3.5a.55.55,0,0,1-.29-.08l-2-1.16a.58.58,0,1,1,.58-1l2,1.16a.6.6,0,0,1,.21.8A.57.57,0,0,1,63.15,159.5Zm-6-3.49a.67.67,0,0,1-.29-.08l-2-1.17a.57.57,0,0,1-.21-.79.58.58,0,0,1,.79-.22l2,1.17a.59.59,0,0,1-.3,1.09Zm-6-3.5a.67.67,0,0,1-.3-.08l-2-1.16a.58.58,0,1,1,.58-1l2,1.16a.59.59,0,0,1,.21.8A.57.57,0,0,1,51.06,152.51ZM45,149a.66.66,0,0,1-.3-.07l-2-1.17a.57.57,0,0,1-.21-.79.58.58,0,0,1,.79-.22l2,1.17A.58.58,0,0,1,45,149Zm-6-3.49a.6.6,0,0,1-.29-.08l-2-1.17a.58.58,0,1,1,.58-1l2,1.16a.59.59,0,0,1,.21.8A.59.59,0,0,1,39,145.52Z"/><path class="cls-7" d="M135.44,106.07a.63.63,0,0,1-.29-.08l-2-1.16a.59.59,0,0,1-.22-.8.58.58,0,0,1,.8-.21l2,1.16a.58.58,0,0,1-.3,1.09Zm-6.05-3.49a.6.6,0,0,1-.29-.08l-2-1.17a.58.58,0,0,1-.22-.79.59.59,0,0,1,.8-.22l2,1.17a.58.58,0,0,1,.22.79A.6.6,0,0,1,129.39,102.58Zm-6-3.5a.51.51,0,0,1-.29-.08l-2-1.16a.58.58,0,1,1,.59-1l2,1.16a.58.58,0,0,1-.29,1.09Zm-6-3.49a.6.6,0,0,1-.29-.08l-2-1.16a.59.59,0,0,1-.21-.8.58.58,0,0,1,.79-.21l2,1.16a.59.59,0,0,1,.22.8A.61.61,0,0,1,117.29,95.59Zm-6.05-3.49A.6.6,0,0,1,111,92l-2-1.17a.58.58,0,0,1,.58-1l2,1.17a.58.58,0,0,1,.21.79A.57.57,0,0,1,111.24,92.1Zm-6-3.5a.51.51,0,0,1-.29-.08l-2-1.16a.59.59,0,0,1-.21-.8.57.57,0,0,1,.79-.21l2,1.16a.59.59,0,0,1,.21.8A.57.57,0,0,1,105.19,88.6Z"/><path class="cls-8" d="M249.07,124.68h-2.33a.58.58,0,0,1-.58-.58.59.59,0,0,1,.58-.59h2.33a.59.59,0,0,1,.58.59A.58.58,0,0,1,249.07,124.68Zm-7,0h-2.33a.58.58,0,0,1-.58-.58.59.59,0,0,1,.58-.59h2.33a.59.59,0,0,1,.58.59A.58.58,0,0,1,242.08,124.68Zm-7,0h-2.33a.58.58,0,0,1-.58-.58.59.59,0,0,1,.58-.59h2.33a.6.6,0,0,1,.59.59A.59.59,0,0,1,235.09,124.68Zm-7,0h-2.33a.59.59,0,0,1-.59-.58.6.6,0,0,1,.59-.59h2.33a.59.59,0,0,1,.58.59A.58.58,0,0,1,228.11,124.68Zm-7,0h-2.33a.58.58,0,0,1-.58-.58.59.59,0,0,1,.58-.59h2.33a.59.59,0,0,1,.58.59A.58.58,0,0,1,221.12,124.68Zm-7,0H211.8a.58.58,0,0,1-.58-.58.59.59,0,0,1,.58-.59h2.33a.59.59,0,0,1,.58.59A.58.58,0,0,1,214.13,124.68Zm-7,0h-2.33a.58.58,0,0,1-.59-.58.59.59,0,0,1,.59-.59h2.33a.59.59,0,0,1,.58.59A.58.58,0,0,1,207.15,124.68Zm-7,0h-2.33a.58.58,0,0,1-.58-.58.59.59,0,0,1,.58-.59h2.33a.59.59,0,0,1,.58.59A.58.58,0,0,1,200.16,124.68Zm-7,0h-2.33a.58.58,0,0,1-.58-.58.59.59,0,0,1,.58-.59h2.33a.59.59,0,0,1,.58.59A.58.58,0,0,1,193.17,124.68Zm-7,0h-2.33a.58.58,0,0,1-.58-.58.59.59,0,0,1,.58-.59h2.33a.59.59,0,0,1,.59.59A.58.58,0,0,1,186.18,124.68Zm-7,0h-2.33a.58.58,0,0,1-.58-.58.59.59,0,0,1,.58-.59h2.33a.59.59,0,0,1,.58.59A.58.58,0,0,1,179.2,124.68Zm-7,0h-2.33a.58.58,0,0,1-.58-.58.59.59,0,0,1,.58-.59h2.33a.59.59,0,0,1,.58.59A.58.58,0,0,1,172.21,124.68Zm-7,0h-2.33a.58.58,0,0,1-.58-.58.59.59,0,0,1,.58-.59h2.33a.59.59,0,0,1,.58.59A.58.58,0,0,1,165.22,124.68Zm-7,0h-2.32a.58.58,0,0,1-.59-.58.59.59,0,0,1,.59-.59h2.32a.59.59,0,0,1,.59.59A.58.58,0,0,1,158.23,124.68Zm-7,0h-2.33a.58.58,0,0,1-.58-.58.59.59,0,0,1,.58-.59h2.33a.59.59,0,0,1,.58.59A.58.58,0,0,1,151.25,124.68Zm-7,0h-2.33a.58.58,0,0,1-.58-.58.59.59,0,0,1,.58-.59h2.33a.59.59,0,0,1,.58.59A.58.58,0,0,1,144.26,124.68Zm-7,0H135a.58.58,0,0,1-.59-.58.59.59,0,0,1,.59-.59h2.32a.59.59,0,0,1,.59.59A.58.58,0,0,1,137.27,124.68Zm-7,0H128a.59.59,0,0,1-.59-.58.6.6,0,0,1,.59-.59h2.33a.59.59,0,0,1,.58.59A.58.58,0,0,1,130.29,124.68Zm-7,0H121a.58.58,0,0,1-.58-.58.59.59,0,0,1,.58-.59h2.33a.59.59,0,0,1,.58.59A.58.58,0,0,1,123.3,124.68Zm-7,0H114a.58.58,0,0,1-.58-.58.59.59,0,0,1,.58-.59h2.33a.59.59,0,0,1,.58.59A.58.58,0,0,1,116.31,124.68Zm-7,0H107a.58.58,0,0,1-.59-.58.59.59,0,0,1,.59-.59h2.32a.59.59,0,0,1,.59.59A.58.58,0,0,1,109.32,124.68Zm-7,0H100a.58.58,0,0,1-.58-.58.59.59,0,0,1,.58-.59h2.33a.59.59,0,0,1,.58.59A.58.58,0,0,1,102.34,124.68Zm-7,0H93a.58.58,0,0,1-.58-.58.59.59,0,0,1,.58-.59h2.33a.59.59,0,0,1,.58.59A.58.58,0,0,1,95.35,124.68Zm-7,0H86a.58.58,0,0,1-.59-.58.59.59,0,0,1,.59-.59h2.32a.6.6,0,0,1,.59.59A.59.59,0,0,1,88.36,124.68Z"/><path class="cls-9" d="M167.67,84a.58.58,0,0,0-.58.58v2.33a.58.58,0,1,0,1.16,0V84.58A.58.58,0,0,0,167.67,84Zm0-7a.58.58,0,0,0-.58.59v2.32a.58.58,0,1,0,1.16,0V77.6A.58.58,0,0,0,167.67,77Zm0-7a.58.58,0,0,0-.58.58v2.33a.58.58,0,1,0,1.16,0V70.61A.58.58,0,0,0,167.67,70Zm0-7a.58.58,0,0,0-.58.58V66a.58.58,0,1,0,1.16,0V63.62A.58.58,0,0,0,167.67,63Zm0-7a.58.58,0,0,0-.58.58V59a.58.58,0,1,0,1.16,0V56.63A.58.58,0,0,0,167.67,56.05Zm0-7a.58.58,0,0,0-.58.58V52a.58.58,0,0,0,1.16,0V49.65A.58.58,0,0,0,167.67,49.07Z"/><path class="cls-10" d="M232.68,86.58a.58.58,0,0,0-.79-.21l-1,.58a.59.59,0,0,0-.22.8.58.58,0,0,0,.8.21l1-.58A.59.59,0,0,0,232.68,86.58Zm-23,12.63-1.93,1.11a.59.59,0,0,0-.21.8.56.56,0,0,0,.5.29.6.6,0,0,0,.29-.08l1.93-1.11a.58.58,0,1,0-.58-1Zm-5.79,3.34-1.93,1.12a.57.57,0,0,0-.21.79.56.56,0,0,0,.5.29.59.59,0,0,0,.29-.07l1.93-1.12a.58.58,0,0,0-.58-1ZM227,89.18l-1.94,1.11a.58.58,0,0,0,.3,1.09.55.55,0,0,0,.29-.08l1.93-1.11a.59.59,0,0,0,.21-.8A.58.58,0,0,0,227,89.18Zm-11.59,6.69L213.5,97a.59.59,0,0,0-.21.8.59.59,0,0,0,.5.29.6.6,0,0,0,.29-.08L216,96.87a.58.58,0,1,0-.59-1Zm5.79-3.35-1.93,1.12a.58.58,0,0,0-.21.79.57.57,0,0,0,.5.29.66.66,0,0,0,.3-.07l1.93-1.12a.58.58,0,0,0,.21-.79A.59.59,0,0,0,221.22,92.52ZM198.06,105.9l-1,.58a.57.57,0,0,0-.21.79.56.56,0,0,0,.5.29.59.59,0,0,0,.29-.07l1-.59a.57.57,0,0,0,.21-.79A.57.57,0,0,0,198.06,105.9Z"/><polygon class="cls-11" points="199.92 142.71 167.68 161.32 167.68 124.09 199.92 105.48 199.92 142.71"/><polygon class="cls-12" points="135.44 142.71 167.68 161.32 167.68 124.09 135.44 105.48 135.44 142.71"/><polygon class="cls-13" points="167.68 86.86 199.92 105.48 199.92 105.48 167.68 124.09 135.44 105.48 135.44 105.48 167.68 86.86"/><path class="cls-14" d="M119.28,152.62a.6.6,0,0,1-.51-.3.58.58,0,0,1,.22-.79l2-1.16a.58.58,0,1,1,.59,1l-2,1.17A.6.6,0,0,1,119.28,152.62Zm6-3.5a.56.56,0,0,1-.5-.29A.57.57,0,0,1,125,148l2-1.17a.58.58,0,0,1,.79.21.59.59,0,0,1-.21.8l-2,1.16A.51.51,0,0,1,125.33,149.12Zm6-3.49a.56.56,0,0,1-.5-.29.59.59,0,0,1,.21-.8l2-1.16a.58.58,0,0,1,.79.21.59.59,0,0,1-.21.8l-2,1.16A.6.6,0,0,1,131.38,145.63Zm6.05-3.49a.59.59,0,0,1-.29-1.09l2-1.16a.57.57,0,0,1,.79.21.57.57,0,0,1-.21.79l-2,1.17A.6.6,0,0,1,137.43,142.14Zm6-3.5a.58.58,0,0,1-.29-1.08l2-1.17a.58.58,0,0,1,.58,1l-2,1.16A.51.51,0,0,1,143.48,138.64Zm6.05-3.49a.57.57,0,0,1-.5-.29.59.59,0,0,1,.21-.8l2-1.16a.58.58,0,1,1,.58,1l-2,1.16A.67.67,0,0,1,149.53,135.15Z"/><path class="cls-15" d="M216.07,152.62a.6.6,0,0,1-.29-.08l-2-1.16a.58.58,0,1,1,.59-1l2,1.16a.58.58,0,0,1-.29,1.09Zm-6-3.5a.59.59,0,0,1-.29-.07l-2-1.17a.58.58,0,0,1,.58-1l2,1.17a.57.57,0,0,1,.21.79A.56.56,0,0,1,210,149.12ZM204,145.63a.6.6,0,0,1-.29-.08l-2-1.16a.59.59,0,0,1-.21-.8.58.58,0,0,1,.79-.21l2,1.16a.59.59,0,0,1,.21.8A.57.57,0,0,1,204,145.63Zm-6.05-3.49a.6.6,0,0,1-.29-.08l-2-1.17a.57.57,0,0,1-.21-.79.57.57,0,0,1,.79-.21l2,1.16a.59.59,0,0,1,.21.8A.59.59,0,0,1,197.92,142.14Zm-6-3.5a.59.59,0,0,1-.29-.07l-2-1.17a.57.57,0,0,1-.21-.79.58.58,0,0,1,.79-.22l2,1.17a.58.58,0,0,1-.29,1.08Zm-6.06-3.49a.6.6,0,0,1-.28-.08l-2-1.16a.58.58,0,1,1,.58-1l2,1.16a.59.59,0,0,1,.21.8A.57.57,0,0,1,185.81,135.15Z"/><polygon class="cls-16" points="282.34 190.31 250.1 208.92 250.1 171.69 282.34 153.08 282.34 190.31"/><polygon class="cls-17" points="217.86 190.31 250.1 208.92 250.1 171.69 217.86 153.08 217.86 190.31"/><polygon class="cls-18" points="250.1 134.46 282.34 153.08 282.34 153.08 250.1 171.69 217.86 153.08 217.86 153.08 250.1 134.46"/><polygon class="cls-19" points="117.5 190.31 85.25 208.92 85.25 171.69 117.5 153.08 117.5 190.31"/><polygon class="cls-20" points="53.02 190.31 85.25 208.92 85.25 171.69 53.02 153.08 53.02 190.31"/><polygon class="cls-21" points="85.25 134.46 117.5 153.08 117.5 153.08 85.25 171.69 53.02 153.08 53.02 153.08 85.25 134.46"/><path class="cls-22" d="M201.7,200.21a.58.58,0,0,1-.29-1.08l2-1.17a.58.58,0,0,1,.58,1l-2,1.16A.51.51,0,0,1,201.7,200.21Zm6.05-3.49a.57.57,0,0,1-.5-.29.59.59,0,0,1,.21-.8l2-1.16a.57.57,0,0,1,.79.21.56.56,0,0,1-.21.79l-2,1.17A.6.6,0,0,1,207.75,196.72Zm6.05-3.5a.58.58,0,0,1-.29-1.08l2-1.17a.59.59,0,0,1,.8.22.58.58,0,0,1-.22.79l-2,1.17A.59.59,0,0,1,213.8,193.22Zm6.06-3.49a.58.58,0,0,1-.3-1.08l2-1.17a.58.58,0,1,1,.58,1l-2,1.16A.55.55,0,0,1,219.86,189.73Zm6-3.49a.61.61,0,0,1-.51-.29.59.59,0,0,1,.22-.8l2-1.16a.58.58,0,1,1,.58,1l-2,1.16A.63.63,0,0,1,225.91,186.24Zm6.05-3.49a.6.6,0,0,1-.51-.3.58.58,0,0,1,.22-.79l2-1.17a.58.58,0,0,1,.58,1l-2,1.17A.6.6,0,0,1,232,182.75Z"/><path class="cls-23" d="M133.65,200.22a.6.6,0,0,1-.29-.08l-2-1.17a.58.58,0,0,1,.58-1l2,1.17a.58.58,0,0,1,.21.79A.57.57,0,0,1,133.65,200.22Zm-6.05-3.5a.51.51,0,0,1-.29-.08l-2-1.16a.59.59,0,0,1-.21-.8.57.57,0,0,1,.79-.21l2,1.17a.57.57,0,0,1,.21.79A.56.56,0,0,1,127.6,196.72Zm-6-3.49a.6.6,0,0,1-.29-.08l-2-1.17a.57.57,0,0,1-.21-.79.57.57,0,0,1,.79-.21l2,1.16a.59.59,0,0,1,.21.8A.59.59,0,0,1,121.55,193.23Zm-6-3.5a.59.59,0,0,1-.29-.07l-2-1.17a.58.58,0,0,1,.58-1l2,1.17a.58.58,0,0,1-.29,1.08Zm-6-3.49a.6.6,0,0,1-.29-.08l-2-1.16a.59.59,0,0,1-.21-.8.57.57,0,0,1,.79-.21l2,1.16a.59.59,0,0,1,.21.8A.59.59,0,0,1,109.45,186.24Zm-6-3.49a.67.67,0,0,1-.3-.08l-2-1.17a.58.58,0,0,1-.22-.79.59.59,0,0,1,.8-.22l2,1.17a.59.59,0,0,1-.29,1.09Z"/><path class="cls-24" d="M167.67,177.06a.58.58,0,0,0-.58.58V180a.58.58,0,1,0,1.16,0v-2.33A.58.58,0,0,0,167.67,177.06Zm0-7a.57.57,0,0,0-.58.58V173a.58.58,0,0,0,1.16,0v-2.33A.57.57,0,0,0,167.67,170.08Zm0-7a.58.58,0,0,0-.58.58V166a.58.58,0,1,0,1.16,0v-2.33A.58.58,0,0,0,167.67,163.09Zm0-7a.58.58,0,0,0-.58.58V159a.58.58,0,1,0,1.16,0v-2.33A.58.58,0,0,0,167.67,156.1Zm0-7a.58.58,0,0,0-.58.58V152a.58.58,0,1,0,1.16,0v-2.33A.58.58,0,0,0,167.67,149.11Zm0-7a.58.58,0,0,0-.58.58V145a.58.58,0,1,0,1.16,0v-2.33A.58.58,0,0,0,167.67,142.13Z"/><polygon class="cls-25" points="199.92 237.89 167.68 256.51 167.68 219.28 199.92 200.66 199.92 237.89"/><polygon class="cls-26" points="135.44 237.89 167.68 256.51 167.68 219.28 135.44 200.66 135.44 237.89"/><polygon class="cls-27" points="167.68 182.05 199.92 200.66 199.92 200.66 167.68 219.28 135.44 200.66 135.44 200.66 167.68 182.05"/><path class="cls-28" d="M167.67,289.38a.58.58,0,0,1-.58-.59v-2.33a.58.58,0,1,1,1.16,0v2.33A.58.58,0,0,1,167.67,289.38Zm0-7a.58.58,0,0,1-.58-.58v-2.33a.58.58,0,0,1,1.16,0v2.33A.58.58,0,0,1,167.67,282.39Zm0-7a.58.58,0,0,1-.58-.58v-2.33a.58.58,0,1,1,1.16,0v2.33A.58.58,0,0,1,167.67,275.4Zm0-7a.58.58,0,0,1-.58-.58V265.5a.58.58,0,1,1,1.16,0v2.33A.58.58,0,0,1,167.67,268.41Zm0-7a.58.58,0,0,1-.58-.59v-2.32a.58.58,0,1,1,1.16,0v2.32A.58.58,0,0,1,167.67,261.43Zm0-7a.58.58,0,0,1-.58-.58v-2.33a.58.58,0,0,1,1.16,0v2.33A.58.58,0,0,1,167.67,254.44Zm0-7a.58.58,0,0,1-.58-.58v-2.33a.58.58,0,1,1,1.16,0v2.33A.58.58,0,0,1,167.67,247.45Zm0-7a.58.58,0,0,1-.58-.59v-2.33a.58.58,0,0,1,1.16,0v2.33A.58.58,0,0,1,167.67,240.47Z"/><path class="cls-29" d="M107.18,254.78a.58.58,0,0,1-.29-1.09l2-1.16a.58.58,0,1,1,.59,1l-2,1.16A.6.6,0,0,1,107.18,254.78Zm6-3.49a.59.59,0,0,1-.29-1.09l2-1.17a.58.58,0,0,1,.58,1l-2,1.17A.6.6,0,0,1,113.23,251.29Zm6-3.5a.56.56,0,0,1-.5-.29.57.57,0,0,1,.21-.79l2-1.17a.58.58,0,0,1,.58,1l-2,1.16A.51.51,0,0,1,119.28,247.79Zm6-3.49a.59.59,0,0,1-.5-.29.59.59,0,0,1,.21-.8l2-1.16a.58.58,0,0,1,.58,1l-2,1.16A.6.6,0,0,1,125.33,244.3Zm6-3.5a.58.58,0,0,1-.29-1.08l2-1.16a.58.58,0,1,1,.58,1l-2,1.17A.59.59,0,0,1,131.38,240.8Zm6.06-3.49a.58.58,0,0,1-.3-1.08l2-1.17a.6.6,0,0,1,.8.21.59.59,0,0,1-.22.8l-2,1.16A.55.55,0,0,1,137.44,237.31Zm6.05-3.49a.58.58,0,0,1-.3-1.09l2-1.16a.58.58,0,1,1,.58,1l-2,1.17A.67.67,0,0,1,143.49,233.82Zm6-3.49a.6.6,0,0,1-.51-.3.58.58,0,0,1,.22-.79l2-1.17a.59.59,0,0,1,.8.22.58.58,0,0,1-.22.79l-2,1.17A.6.6,0,0,1,149.54,230.33Z"/><path class="cls-30" d="M228.17,254.79a.6.6,0,0,1-.29-.08l-2-1.16a.59.59,0,0,1-.21-.8.58.58,0,0,1,.79-.21l2,1.16a.59.59,0,0,1,.21.8A.58.58,0,0,1,228.17,254.79Zm-6-3.49a.6.6,0,0,1-.29-.08l-2-1.17a.58.58,0,0,1,.58-1l2,1.17a.58.58,0,0,1,.21.79A.57.57,0,0,1,222.12,251.3Zm-6.05-3.5a.51.51,0,0,1-.29-.08l-2-1.16a.59.59,0,0,1-.21-.8.57.57,0,0,1,.79-.21l2,1.17a.58.58,0,0,1-.29,1.08Zm-6-3.49a.67.67,0,0,1-.3-.08l-2-1.16a.58.58,0,0,1,.58-1l2,1.16a.59.59,0,0,1,.21.8A.59.59,0,0,1,210,244.31Zm-6.05-3.5a.66.66,0,0,1-.3-.07l-2-1.17a.57.57,0,0,1-.21-.79.58.58,0,0,1,.79-.22l2,1.17a.58.58,0,0,1-.29,1.08Zm-6.06-3.49a.55.55,0,0,1-.29-.08l-2-1.16a.58.58,0,1,1,.58-1l2,1.16a.6.6,0,0,1,.21.8A.59.59,0,0,1,197.91,237.32Zm-6-3.49a.63.63,0,0,1-.29-.08l-2-1.17a.58.58,0,0,1-.22-.79.59.59,0,0,1,.8-.21l2,1.16a.59.59,0,0,1,.22.8A.61.61,0,0,1,191.86,233.83Zm-6.05-3.5a.59.59,0,0,1-.29-.07l-2-1.17a.58.58,0,0,1-.22-.79.59.59,0,0,1,.8-.22l2,1.17a.58.58,0,0,1,.22.79A.59.59,0,0,1,185.81,230.33Z"/><path class="cls-31" d="M36.94,200.19a.59.59,0,0,1-.51-.29.58.58,0,0,1,.22-.79l2-1.15a.58.58,0,0,1,.79.21.59.59,0,0,1-.21.8l-2,1.14A.51.51,0,0,1,36.94,200.19Zm6-3.47a.57.57,0,0,1-.5-.3.58.58,0,0,1,.21-.79l2-1.17a.58.58,0,0,1,.58,1l-2,1.17A.6.6,0,0,1,43,196.72Zm6-3.5a.58.58,0,0,1-.29-1.08l2-1.17a.58.58,0,0,1,.58,1l-2,1.16A.51.51,0,0,1,49,193.22Zm6.05-3.49a.59.59,0,0,1-.5-.29.59.59,0,0,1,.21-.8l2-1.16a.58.58,0,0,1,.8.21.59.59,0,0,1-.22.8l-2,1.16A.6.6,0,0,1,55.06,189.73Zm6-3.5a.58.58,0,0,1-.29-1.08l2-1.17a.59.59,0,0,1,.8.22.58.58,0,0,1-.22.79l-2,1.17A.66.66,0,0,1,61.11,186.23Zm6.06-3.49a.57.57,0,0,1-.51-.29.59.59,0,0,1,.21-.8l2-1.16a.6.6,0,0,1,.8.21.59.59,0,0,1-.22.8l-2,1.16A.51.51,0,0,1,67.17,182.74Z"/><path class="cls-32" d="M298.5,200.2a.6.6,0,0,1-.29-.08l-2-1.16a.59.59,0,0,1-.21-.8.57.57,0,0,1,.79-.21l2,1.16a.58.58,0,0,1,.22.79A.6.6,0,0,1,298.5,200.2Zm-6-3.49a.67.67,0,0,1-.3-.08l-2-1.16a.58.58,0,1,1,.58-1l2,1.16a.59.59,0,0,1,.21.8A.59.59,0,0,1,292.46,196.71Zm-6.06-3.5a.59.59,0,0,1-.29-.07l-2-1.17a.58.58,0,0,1-.21-.79.59.59,0,0,1,.8-.22l2,1.17a.58.58,0,0,1,.22.79A.59.59,0,0,1,286.4,193.21Zm-6-3.48a.6.6,0,0,1-.29-.08l-2-1.17a.58.58,0,0,1,.58-1l2,1.17a.58.58,0,0,1,.22.79A.6.6,0,0,1,280.35,189.73Zm-6.05-3.5a.59.59,0,0,1-.29-.07L272,185a.58.58,0,0,1,.58-1l2,1.17a.57.57,0,0,1,.21.79A.56.56,0,0,1,274.3,186.23Zm-6.05-3.49a.56.56,0,0,1-.3-.08l-2-1.16a.58.58,0,0,1-.22-.79.59.59,0,0,1,.8-.22l2,1.16a.59.59,0,0,1,.21.8A.57.57,0,0,1,268.25,182.74Z"/></svg>