<svg width="55" height="58" viewBox="0 0 55 58" fill="none" xmlns="http://www.w3.org/2000/svg">
<path d="M20.2776 27.6401V20.6062C20.2776 19.8624 20.8156 19.2057 21.5514 19.0475L31.5129 16.9112C31.5208 16.9112 31.5208 16.9112 31.5287 16.9033C31.5604 16.8954 31.5841 16.8875 31.6157 16.8795C31.6316 16.8795 31.6395 16.8716 31.6553 16.8716H31.6632C32.8421 16.4681 33.6333 15.7085 34.0052 14.6008C34.4087 13.3982 34.1239 12.0768 33.2615 11.1511C32.4386 10.257 31.3467 9.90098 30.1045 10.1067C30.0966 10.1067 30.0887 10.1146 30.0729 10.1146C30.0649 10.1146 30.057 10.1146 30.0412 10.1225L17.7456 12.7573C16.7804 12.963 15.9417 13.4773 15.3324 14.2369L12.8322 17.2989C12.8243 17.3068 12.8005 17.3384 12.7372 17.3384C12.6739 17.3384 12.6502 17.3147 12.6423 17.2989L9.51696 13.4456C9.51696 13.4456 9.51696 13.4456 9.51696 13.4377C9.50113 13.414 9.4774 13.3903 9.45366 13.3665C9.44575 13.3586 9.43784 13.3428 9.42201 13.3349C9.36663 13.2795 9.31124 13.232 9.24794 13.1925C9.24003 13.1845 9.23212 13.1845 9.22421 13.1766C9.20047 13.1608 9.17673 13.145 9.153 13.1371C9.13717 13.1292 9.12926 13.1212 9.11344 13.1133C9.09761 13.1054 9.07387 13.0975 9.05805 13.0817C9.03431 13.0738 9.01849 13.0579 8.99475 13.05C8.97893 13.0421 8.96311 13.0421 8.95519 13.0342C8.93146 13.0263 8.89981 13.0105 8.87607 13.0026C8.86816 13.0026 8.86025 12.9946 8.85233 12.9946C8.78113 12.9709 8.702 12.9551 8.63079 12.9472C8.63079 12.9472 8.63079 12.9472 8.62288 12.9472C8.60705 12.9472 8.59123 12.9472 8.58332 12.9472C8.55167 12.9472 8.52002 12.9393 8.48837 12.9393C8.48837 12.9393 8.48837 12.9393 8.48046 12.9393C4.12084 12.9393 0.576172 16.4839 0.576172 20.8436V28.9219C0.576172 29.6657 1.1775 30.267 1.92125 30.267H17.6586C19.0907 30.2749 20.2776 29.096 20.2776 27.6401ZM7.84748 15.6769L10.5376 19C11.0678 19.6567 11.8669 20.0365 12.7214 20.0365C13.5759 20.0365 14.3671 19.6646 14.9052 19.0079L17.4054 15.9459C17.6349 15.669 17.9435 15.4791 18.3074 15.4L30.5713 12.7652C30.9432 12.7019 31.1014 12.7889 31.2755 12.9788C31.4654 13.1845 31.5287 13.4852 31.4417 13.7542C31.3625 13.9916 31.236 14.1657 30.8562 14.3081L20.9817 16.4285C19.0116 16.8479 17.5795 18.6123 17.5795 20.6141V27.6006H7.62594V20.891C7.62594 20.2818 7.12747 19.7833 6.51823 19.7833C5.909 19.7833 5.41053 20.2818 5.41053 20.891V27.6006H3.25049V20.8673C3.24258 18.1851 5.26019 15.9775 7.84748 15.6769Z" fill="#EB669F"/>
<path d="M24.3919 3.65035H48.627C49.1809 3.65035 49.6161 4.08553 49.6161 4.63938V26.5957C49.6161 27.1496 49.1809 27.5848 48.627 27.5848H36.2682C35.5244 27.5848 34.9231 28.1861 34.9231 28.9298C34.9231 29.6736 35.5244 30.2749 36.2682 30.2749H48.627C50.6605 30.2749 52.3062 28.6213 52.3062 26.5957V4.63938C52.3062 2.60594 50.6525 0.960205 48.627 0.960205H24.3919C23.6482 0.960205 23.0469 1.56153 23.0469 2.30528C23.0469 3.04903 23.6482 3.65035 24.3919 3.65035Z" fill="#EB669F"/>
<path d="M12.7207 11.6181C15.751 11.6181 18.2196 9.14947 18.2196 6.1191C18.2196 3.08872 15.751 0.620117 12.7207 0.620117C9.69029 0.620117 7.22168 3.08872 7.22168 6.1191C7.22168 9.14947 9.69029 11.6181 12.7207 11.6181ZM12.7207 3.30235C14.2715 3.30235 15.5295 4.56039 15.5295 6.11119C15.5295 7.66198 14.2715 8.92002 12.7207 8.92002C11.1699 8.92002 9.91183 7.66198 9.91183 6.11119C9.91183 4.56831 11.1778 3.30235 12.7207 3.30235Z" fill="#EB669F"/>
<path d="M17.8247 39.7539C17.8247 36.5811 15.2453 34.0017 12.0725 34.0017C8.89969 34.0017 6.32031 36.5811 6.32031 39.7539C6.32031 42.9267 8.89969 45.5061 12.0725 45.5061C15.2453 45.5061 17.8247 42.9267 17.8247 39.7539ZM12.0804 42.8159C10.3951 42.8159 9.01837 41.4392 9.01837 39.7539C9.01837 38.0686 10.3951 36.6919 12.0804 36.6919C13.7657 36.6919 15.1424 38.0686 15.1424 39.7539C15.1345 41.4471 13.7657 42.8159 12.0804 42.8159Z" fill="#EB669F"/>
<path d="M36.2368 39.7539C36.2368 36.5811 33.6574 34.0017 30.4846 34.0017C27.3118 34.0017 24.7324 36.5811 24.7324 39.7539C24.7324 42.9267 27.3118 45.5061 30.4846 45.5061C33.6574 45.5061 36.2368 42.9267 36.2368 39.7539ZM30.4846 42.8159C28.7993 42.8159 27.4226 41.4392 27.4226 39.7539C27.4226 38.0686 28.7993 36.6919 30.4846 36.6919C32.1699 36.6919 33.5466 38.0686 33.5466 39.7539C33.5466 41.4471 32.1778 42.8159 30.4846 42.8159Z" fill="#EB669F"/>
<path d="M48.928 34.0098C45.7552 34.0098 43.1758 36.5891 43.1758 39.7619C43.1758 42.9347 45.7552 45.5141 48.928 45.5141C52.1007 45.5141 54.6801 42.9347 54.6801 39.7619C54.6801 36.5891 52.0928 34.0098 48.928 34.0098ZM48.928 42.816C47.2427 42.816 45.8659 41.4393 45.8659 39.754C45.8659 38.0687 47.2427 36.692 48.928 36.692C50.6133 36.692 51.99 38.0687 51.99 39.754C51.99 41.4472 50.6133 42.816 48.928 42.816Z" fill="#EB669F"/>
<path d="M39.6936 46.3921C36.5208 46.3921 33.9414 48.9715 33.9414 52.1443C33.9414 55.3171 36.5208 57.8964 39.6936 57.8964C42.8664 57.8964 45.4457 55.3171 45.4457 52.1443C45.4457 48.9715 42.8664 46.3921 39.6936 46.3921ZM39.6936 55.2063C38.0083 55.2063 36.6316 53.8296 36.6316 52.1443C36.6316 50.459 38.0083 49.0822 39.6936 49.0822C41.3789 49.0822 42.7556 50.459 42.7556 52.1443C42.7556 53.8296 41.3789 55.2063 39.6936 55.2063Z" fill="#EB669F"/>
<path d="M21.2824 46.3921C18.1097 46.3921 15.5303 48.9715 15.5303 52.1443C15.5303 55.3171 18.1097 57.8964 21.2824 57.8964C24.4552 57.8964 27.0346 55.3171 27.0346 52.1443C27.0346 48.9715 24.4552 46.3921 21.2824 46.3921ZM21.2824 55.2063C19.5971 55.2063 18.2204 53.8296 18.2204 52.1443C18.2204 50.459 19.5971 49.0822 21.2824 49.0822C22.9677 49.0822 24.3445 50.459 24.3445 52.1443C24.3445 53.8296 22.9677 55.2063 21.2824 55.2063Z" fill="#EB669F"/>
</svg>
