<svg width="79" height="64" viewBox="0 0 79 64" fill="none" xmlns="http://www.w3.org/2000/svg">
<path d="M78.0529 46.6282L71.9734 40.5485V19.6945L75.9425 18.2635C76.8536 17.9349 77.4613 17.0708 77.462 16.102C77.4628 15.1335 76.8564 14.2682 75.9455 13.9385L39.6315 0.787287C39.1258 0.604107 38.5714 0.604107 38.0657 0.787287L1.75185 13.9385C0.844533 14.2672 0.239045 15.1271 0.235366 16.0921C0.231993 17.057 0.831197 17.9214 1.73591 18.2566L15.1377 23.2212V38.3747C15.1377 38.845 15.2818 39.3041 15.5509 39.6897C15.6988 39.9019 17.1 41.8154 20.6876 43.6211C25.2198 45.9027 31.1644 47.0595 38.3557 47.0595C45.5419 47.0595 51.5164 45.9051 56.1134 43.628C59.7364 41.8335 61.1842 39.9399 61.3375 39.73C61.6244 39.3365 61.7791 38.8621 61.7791 38.375V23.3696L67.3749 21.3521V40.5485L61.2952 46.6282C60.864 47.0594 60.6216 47.6442 60.6216 48.254C60.6216 48.8637 60.8638 49.4487 61.2952 49.8797L67.3749 55.9593V61.0603C67.3749 62.3301 68.4044 63.3596 69.6742 63.3596C70.944 63.3596 71.9735 62.3301 71.9735 61.0603V55.9593L78.0531 49.8797C78.9511 48.9821 78.9511 47.526 78.0529 46.6282ZM38.8487 5.39468L68.3967 16.0956L38.3666 26.9222L9.21975 16.1249L38.8487 5.39468ZM57.1803 37.4583C49.3198 44.5313 25.9621 43.7203 19.7364 37.4813V24.9248L37.5569 31.5264C37.8398 31.5711 38.1068 31.815 39.1355 31.5334L57.1804 25.0278L57.1803 37.4583ZM69.674 51.7554L66.1725 48.254L69.674 44.7524L73.1755 48.254L69.674 51.7554Z" fill="#5AB288"/>
</svg>
