<svg width="41" height="40" viewBox="0 0 41 40" fill="none" xmlns="http://www.w3.org/2000/svg">
<path d="M20.6863 39.7076C31.5987 39.7076 40.4449 30.8613 40.4449 19.949C40.4449 9.03664 31.5987 0.19043 20.6863 0.19043C9.77394 0.19043 0.927734 9.03664 0.927734 19.949C0.927734 30.8613 9.77394 39.7076 20.6863 39.7076Z" fill="#F68634"/>
<path d="M27.3571 12.8838H14.9292C13.2204 12.8838 11.8223 14.2819 11.8223 15.9908V23.7582C11.8223 25.467 13.2204 26.8651 14.9292 26.8651H27.3571C29.0659 26.8651 30.464 25.467 30.464 23.7582V15.9908C30.464 14.2819 29.0659 12.8838 27.3571 12.8838ZM28.5999 17.3889L22.4636 21.5056C22.0752 21.7386 21.6092 21.894 21.1432 21.894C20.6771 21.894 20.2111 21.7386 19.8227 21.5056L13.6864 17.3889C13.3757 17.1559 13.2981 16.6898 13.5311 16.3014C13.7641 15.9908 14.2302 15.9131 14.6185 16.1461L20.7548 20.2628C20.9878 20.4182 21.3762 20.4182 21.6092 20.2628L27.7455 16.1461C28.1338 15.9131 28.5999 15.9908 28.8329 16.3791C28.9882 16.6898 28.9106 17.1559 28.5999 17.3889Z" fill="white"/>
</svg>
