<svg width="41" height="40" viewBox="0 0 41 40" fill="none" xmlns="http://www.w3.org/2000/svg">
<rect x="9.33594" y="8.70215" width="22.3441" height="21.2801" fill="white"/>
<path d="M20.5838 0.19043C9.67209 0.19043 0.825195 9.03609 0.825195 19.949C0.825195 30.8607 9.67209 39.7076 20.5838 39.7076C31.4954 39.7076 40.3423 30.8607 40.3423 19.949C40.3423 9.03609 31.4954 0.19043 20.5838 0.19043ZM15.4515 27.7005H11.4207V15.5737H15.4515V27.7005ZM13.4361 13.9177H13.4102C12.0567 13.9177 11.1824 12.9853 11.1824 11.822C11.1824 10.6328 12.0839 9.72764 13.462 9.72764C14.8402 9.72764 15.6898 10.6328 15.7157 11.822C15.7157 12.9866 14.8402 13.9177 13.4361 13.9177ZM29.9851 27.7005H25.9544V21.2123C25.9544 19.5822 25.3715 18.4708 23.9118 18.4708C22.7992 18.4708 22.136 19.2204 21.8446 19.9453C21.7384 20.2046 21.7112 20.5664 21.7112 20.9283V27.7005H17.6817C17.6817 27.7005 17.7348 16.7123 17.6817 15.5737H21.7125V17.2915C22.2472 16.4653 23.2055 15.2884 25.3456 15.2884C27.9969 15.2884 29.9851 17.0223 29.9851 20.7467V27.7005Z" fill="#F68634"/>
</svg>
