<svg width="68" height="66" viewBox="0 0 68 66" fill="none" xmlns="http://www.w3.org/2000/svg">
<g clip-path="url(#clip0_1670_404)">
<path d="M48.2708 50.9166C47.5531 50.9166 46.9707 51.4898 46.9707 52.196C46.9707 52.9023 47.5531 53.4755 48.2708 53.4755C48.9884 53.4755 49.5708 52.9023 49.5708 52.196C49.5708 51.4898 48.9884 50.9166 48.2708 50.9166Z" fill="#E0B115"/>
<path d="M51.4732 46.7793L45.2941 44.7527L43.0758 40.3864C45.0742 38.3846 46.4618 35.7359 46.9297 32.9733L47.2063 31.3414H49.5723C51.7229 31.3414 53.4725 29.6195 53.4725 27.5031V19.4428C53.4725 8.86069 44.7244 0.251465 33.9716 0.251465C23.1913 0.251465 14.4708 8.83599 14.4708 19.4428V27.5031C14.4708 29.171 15.5577 30.5932 17.0709 31.1213V32.6208C17.0709 34.7372 18.8205 36.4591 20.9711 36.4591H22.1128C22.6763 37.6639 23.4058 38.7798 24.2935 39.7822C24.4776 39.9905 24.6696 40.1924 24.8663 40.3888L22.6492 44.7527L16.4699 46.7794C9.2851 49.1371 4.07031 56.5807 4.07031 64.4784C4.07031 65.185 4.65235 65.7578 5.37037 65.7578H62.5729C63.2908 65.7578 63.8729 65.185 63.8729 64.4784C63.8729 56.5807 58.6583 49.1371 51.4732 46.7793ZM50.8724 27.5031C50.8724 28.2086 50.2892 28.7826 49.5723 28.7826H47.5882C47.9186 26.2634 48.1389 23.5826 48.2274 20.9423C48.23 20.8678 48.2321 20.7954 48.2344 20.7222H50.8724V27.5031ZM18.3709 28.7826C17.6541 28.7826 17.0709 28.2086 17.0709 27.5031V20.7222H19.7097C19.714 20.8556 19.7186 20.9897 19.7236 21.1247C19.7238 21.1293 19.724 21.1338 19.7242 21.1384C19.7242 21.1388 19.7242 21.1392 19.7242 21.1395C19.8152 23.7076 20.0325 26.3188 20.3555 28.7824H18.3709V28.7826ZM20.9711 33.9002C20.2542 33.9002 19.671 33.3263 19.671 32.6208V31.3414H20.7368L21.0134 32.9738C21.0662 33.2841 21.1311 33.5932 21.2061 33.9002H20.9711ZM19.6732 18.1634H17.1203C17.7788 9.58855 25.0502 2.81031 33.9716 2.81031C42.8533 2.81031 50.1568 9.58766 50.8228 18.1634H48.2702C48.1766 11.0975 42.3298 5.36915 35.1353 5.36915H32.8082C25.6138 5.36915 19.7667 11.0975 19.6732 18.1634ZM32.8081 7.92799H35.1352C40.9606 7.92799 45.6755 12.6172 45.6721 18.3438C45.6721 18.7464 45.6689 19.0969 45.662 19.4159C45.662 19.42 45.6619 19.4242 45.6619 19.4284L44.0357 19.1998C39.6182 18.579 35.4471 16.5266 32.2908 13.4204C32.0469 13.1805 31.7163 13.0457 31.3715 13.0457C27.8801 13.0457 24.5379 14.6112 22.3286 17.256C22.873 12.0463 27.3482 7.92799 32.8081 7.92799ZM23.9014 33.9002C23.2506 31.7696 22.5059 25.5005 22.3413 21.4831L24.0911 19.187C25.6981 17.079 28.1982 15.7693 30.8577 15.619C34.3571 18.8963 38.8841 21.0606 43.6681 21.7328L45.582 22.002C45.4541 24.6741 45.1927 27.3555 44.8181 29.8216C44.818 29.8223 44.8179 29.8232 44.8177 29.8241C44.6986 30.617 44.6048 31.1272 44.3651 32.5524C43.6765 36.6164 40.5951 40.2916 36.5274 41.2925C34.8533 41.7038 33.0897 41.7037 31.4165 41.2925C28.8766 40.6676 26.5476 38.9381 25.0446 36.4591H27.6949C28.2316 37.9482 29.6766 39.0179 31.3715 39.0179H33.9716C36.1265 39.0179 37.8718 37.3004 37.8718 35.1797C37.8718 33.0632 36.1222 31.3414 33.9716 31.3414H31.3715C29.6389 31.3414 28.2152 32.4427 27.6927 33.9002H23.9014ZM31.2622 43.8818C32.1539 44.0666 33.063 44.1612 33.9716 44.1612C34.6829 44.1612 35.3943 44.1026 36.0976 43.989L33.8004 46.3798L31.2622 43.8818ZM32.0131 48.2399L27.8896 52.5313C26.7544 50.3929 25.7789 48.1673 24.9789 45.8889L26.5274 42.8411L32.0131 48.2399ZM41.1955 42.4076L42.9641 45.8888C42.1628 48.171 41.1871 50.3973 40.053 52.5332L35.6396 48.1898L41.1955 42.4076ZM30.0714 35.1797C30.0714 34.4733 30.6536 33.9002 31.3715 33.9002H33.9716C34.6885 33.9002 35.2717 34.4742 35.2717 35.1797C35.2717 35.8862 34.6894 36.4591 33.9716 36.4591H31.3715C30.6547 36.4591 30.0714 35.8851 30.0714 35.1797ZM6.72243 63.199C7.23764 56.8608 11.5238 51.0999 17.2921 49.2068L22.7646 47.4121C23.7672 50.1404 25.0093 52.7923 26.465 55.3112C26.4674 55.3156 26.4698 55.3199 26.4722 55.3241L26.4724 55.3244C27.5359 57.1653 28.733 58.9643 30.0309 60.6722L31.6302 63.199H6.72243ZM33.9716 62.0585L32.2085 59.2728C32.1887 59.2416 32.1677 59.2113 32.1453 59.1818C31.0925 57.7998 30.1104 56.3545 29.216 54.8751L33.8524 50.0499L38.7378 54.8577C37.8373 56.3478 36.8519 57.7992 35.7982 59.1816C35.7345 59.2651 35.8248 59.1335 33.9716 62.0585ZM36.313 63.199L37.9122 60.6724C39.2158 58.9579 40.4215 57.1445 41.4957 55.2819C41.5022 55.2707 41.5083 55.2591 41.5148 55.2479C41.5156 55.2465 41.5164 55.2452 41.5171 55.2438C42.9544 52.7489 44.1834 50.1201 45.1786 47.4121L50.651 49.2068C56.4194 51.0999 60.7056 56.8608 61.2208 63.199H36.313Z" fill="#E0B115"/>
<path d="M57.3132 58.0213C56.4443 56.3098 55.1717 54.7894 53.6328 53.6243C53.0637 53.1933 52.2475 53.2981 51.8098 53.8582C51.3719 54.4183 51.4784 55.2215 52.0474 55.6524C53.2765 56.583 54.2929 57.7975 54.987 59.1648C55.3085 59.798 56.0898 60.0529 56.731 59.7376C57.3732 59.4219 57.6339 58.6535 57.3132 58.0213Z" fill="#E0B115"/>
</g>
<defs>
<clipPath id="clip0_1670_404">
<rect width="66.5629" height="65.5063" fill="white" transform="translate(0.689453 0.251465)"/>
</clipPath>
</defs>
</svg>
