<svg width="66" height="66" viewBox="0 0 66 66" fill="none" xmlns="http://www.w3.org/2000/svg">
<path d="M60.7822 28.5041C60.5319 21.3734 57.6443 14.7055 52.5739 9.63505C47.2593 4.31949 40.1961 1.39307 32.6865 1.39307C17.5191 1.39307 5.12602 13.4654 4.59181 28.5041C2.27723 29.5327 0.657227 31.8493 0.657227 34.5418V41.9595C0.657227 45.602 3.62042 48.5662 7.26389 48.5662C9.62137 48.5662 11.5386 46.6489 11.5386 44.2914V32.2088C11.5386 29.9954 9.84098 28.1905 7.68268 27.976C8.4794 14.874 19.3863 4.45738 32.6865 4.45738C39.3789 4.45738 45.672 7.06614 50.4084 11.8025C54.7577 16.1518 57.3031 21.8208 57.6862 27.977C55.5299 28.1936 53.8354 29.9974 53.8354 32.2088V44.2904C53.8354 46.5223 55.5595 48.3384 57.7434 48.5274V51.5804C57.7434 55.0186 54.9457 57.8153 51.5075 57.8153H46.8896C46.6628 57.1677 46.3074 56.5691 45.8089 56.0727C44.9356 55.1953 43.7711 54.7122 42.5311 54.7122H37.7712C37.0879 54.7122 36.4321 54.8572 35.8315 55.1371C34.1931 55.8899 33.1349 57.5426 33.1349 59.3475C33.1349 60.5875 33.618 61.7519 34.4934 62.6232C35.3688 63.5006 36.5332 63.9838 37.7712 63.9838H42.5311C44.5045 63.9838 46.244 62.708 46.8926 60.8796H51.5075C56.6361 60.8796 60.8077 56.708 60.8077 51.5804V47.9819C63.108 46.9472 64.7157 44.6387 64.7157 41.9575V34.5398C64.7157 31.8493 63.0957 29.5327 60.7822 28.5041ZM8.47327 32.2088V44.2904C8.47327 44.9574 7.93089 45.5008 7.26287 45.5008C5.30988 45.5008 3.72052 43.9115 3.72052 41.9585V34.5408C3.72052 32.5868 5.30988 30.9984 7.26287 30.9984C7.93089 30.9984 8.47327 31.5418 8.47327 32.2088ZM44.0684 59.6764C43.9162 60.3975 43.2686 60.9215 42.5301 60.9215H37.7702C37.3514 60.9215 36.9581 60.7581 36.6578 60.4578C36.3616 60.1626 36.1982 59.7683 36.1982 59.3495C36.1982 58.7377 36.5567 58.1789 37.1185 57.9205C37.3187 57.8265 37.5383 57.7785 37.7702 57.7785H42.5301C42.9489 57.7785 43.3421 57.9409 43.6414 58.2412C43.9376 58.5364 44.1011 58.9307 44.1011 59.3495C44.1021 59.4619 44.0898 59.5742 44.0684 59.6764ZM61.6514 41.9585C61.6514 43.9115 60.062 45.5008 58.1091 45.5008C57.4421 45.5008 56.8987 44.9584 56.8987 44.2904V32.2088C56.8987 31.5418 57.441 30.9984 58.1091 30.9984C60.062 30.9984 61.6514 32.5878 61.6514 34.5408V41.9585Z" fill="#47BBEE"/>
<path d="M42.6072 42.4866C46.1873 42.4866 49.0995 39.5735 49.0995 35.9944V22.7657C49.0995 21.0354 48.4233 19.4052 47.1955 18.1774C45.9677 16.9496 44.3385 16.2734 42.6072 16.2734H22.7647C19.1846 16.2734 16.2725 19.1856 16.2725 22.7657V35.9944C16.2725 39.5745 19.1846 42.4866 22.7647 42.4866H22.8863V45.9146C22.8863 47.222 23.6656 48.3824 24.8709 48.8716C25.2601 49.0279 25.6646 49.1055 26.065 49.1055C26.8995 49.1055 27.7126 48.7746 28.3081 48.1587L34.0108 42.4866H42.6072ZM32.2999 39.8676L26.1283 46.0055C26.1007 46.0341 26.0803 46.0555 26.0221 46.03C25.9516 46.0014 25.9516 45.9554 25.9516 45.9146V40.9545C25.9516 40.1087 25.2662 39.4223 24.4195 39.4223H22.7657C20.8751 39.4223 19.3378 37.884 19.3378 35.9944V22.7657C19.3378 20.875 20.8751 19.3378 22.7657 19.3378H42.6082C43.5214 19.3378 44.3804 19.6953 45.03 20.3439C45.6797 20.9935 46.0362 21.8536 46.0362 22.7657V35.9944C46.0362 37.885 44.4979 39.4223 42.6082 39.4223H33.3805C32.975 39.4223 32.5869 39.5827 32.2999 39.8676Z" fill="#47BBEE"/>
<path d="M25.2429 27.3643C23.9967 27.3643 22.9824 28.3796 22.9824 29.6247C22.9824 30.8698 23.9977 31.8851 25.2429 31.8851C26.49 31.8851 27.5054 30.8698 27.5054 29.6247C27.5054 28.3796 26.4911 27.3643 25.2429 27.3643Z" fill="#47BBEE"/>
<path d="M32.6852 27.3643C31.4391 27.3643 30.4248 28.3796 30.4248 29.6247C30.4248 30.8698 31.4401 31.8851 32.6852 31.8851C33.9334 31.8851 34.9477 30.8698 34.9477 29.6247C34.9477 28.3796 33.9334 27.3643 32.6852 27.3643Z" fill="#47BBEE"/>
<path d="M40.1267 27.3643C38.8805 27.3643 37.8662 28.3796 37.8662 29.6247C37.8662 30.8698 38.8815 31.8851 40.1267 31.8851C41.3738 31.8851 42.3891 30.8698 42.3891 29.6247C42.3891 28.3796 41.3738 27.3643 40.1267 27.3643Z" fill="#47BBEE"/>
</svg>
