<svg width="66" height="66" viewBox="0 0 66 66" fill="none" xmlns="http://www.w3.org/2000/svg">
<g clip-path="url(#clip0_1671_487)">
<path d="M64.5145 15.3811C64.5099 15.3535 64.5109 15.3243 64.5037 15.2972C64.4839 15.2226 64.4545 15.1509 64.4162 15.0838C64.4034 15.0608 64.384 15.0424 64.3686 15.0209C64.3411 14.9777 64.31 14.9369 64.2755 14.8991C64.2545 14.8776 64.2279 14.8627 64.2048 14.8433C64.1707 14.8118 64.134 14.783 64.0953 14.7573L64.0887 14.7547L64.083 14.7507L56.6005 10.4636C56.4649 10.386 56.3114 10.3451 56.1552 10.3451C55.999 10.3451 55.8456 10.386 55.71 10.4636L48.2233 14.7501L48.2177 14.7542L48.2111 14.7568C48.1722 14.7827 48.1354 14.8116 48.101 14.8433C48.078 14.8622 48.0499 14.8776 48.0309 14.8986C47.996 14.9368 47.9645 14.9781 47.9368 15.0219C47.9219 15.0434 47.903 15.0613 47.8902 15.0838C47.852 15.1509 47.8225 15.2226 47.8027 15.2972C47.7955 15.3233 47.7965 15.3515 47.7919 15.3781C47.7812 15.4271 47.7747 15.4769 47.7725 15.527V17.3515L41.1139 13.1816C41.1235 13.1367 41.1297 13.0912 41.1323 13.0454V5.56031C41.1299 5.51107 41.1234 5.46211 41.1128 5.41395C41.1082 5.38631 41.1093 5.35714 41.1021 5.33002C41.0822 5.25558 41.0528 5.18403 41.0146 5.11712C40.9967 5.09053 40.9774 5.06491 40.9567 5.04036C40.9321 5.00231 40.9045 4.96621 40.8744 4.93237C40.8474 4.90854 40.819 4.88633 40.7894 4.86584C40.7591 4.83857 40.727 4.81343 40.6932 4.79061H40.6881L40.6845 4.78294L33.1973 0.496367C33.0618 0.418758 32.9083 0.37793 32.7521 0.37793C32.5959 0.37793 32.4424 0.418758 32.3068 0.496367L24.8197 4.78294L24.8135 4.78754H24.8084C24.7744 4.81051 24.7421 4.83581 24.7117 4.86329C24.6823 4.88362 24.6541 4.90566 24.6272 4.9293C24.5966 4.9636 24.5688 5.00021 24.5438 5.03882C24.5236 5.0629 24.5046 5.08801 24.487 5.11405C24.4488 5.18112 24.4193 5.25285 24.3995 5.32746C24.3923 5.35356 24.3934 5.38171 24.3888 5.40832C24.378 5.45732 24.3715 5.50714 24.3693 5.55724V13.0454C24.3719 13.0914 24.378 13.1371 24.3877 13.1821L17.7307 17.3515V15.5275C17.7283 15.4783 17.7218 15.4293 17.7112 15.3811C17.7066 15.3535 17.7076 15.3243 17.7005 15.2972C17.6806 15.2226 17.6512 15.1509 17.6129 15.0838C17.6002 15.0608 17.5807 15.0424 17.5654 15.0209C17.5379 14.9777 17.5067 14.9369 17.4722 14.8991C17.4512 14.8776 17.4246 14.8627 17.4016 14.8433C17.3674 14.8118 17.3308 14.783 17.2921 14.7573L17.2854 14.7547L17.2798 14.7507L9.7962 10.4636C9.66064 10.386 9.50716 10.3451 9.35096 10.3451C9.19476 10.3451 9.04127 10.386 8.90572 10.4636L1.42059 14.7501L1.41497 14.7542L1.40831 14.7568C1.3694 14.7827 1.33261 14.8116 1.29828 14.8433C1.27525 14.8622 1.24711 14.8776 1.22817 14.8986C1.19324 14.9368 1.16174 14.9781 1.134 15.0219C1.11916 15.0434 1.10023 15.0613 1.08743 15.0838C1.0492 15.1509 1.01979 15.2226 0.999921 15.2972C0.992756 15.3233 0.99378 15.3515 0.989174 15.3781C0.978458 15.4271 0.971952 15.4769 0.969727 15.527V23.0121C0.969705 23.1729 1.01298 23.3308 1.09502 23.4691C1.17706 23.6074 1.29482 23.7211 1.43595 23.7982L8.45485 27.6308V37.8857L1.42059 41.9143L1.41497 41.9184L1.40831 41.9209C1.3694 41.9468 1.33261 41.9757 1.29828 42.0074C1.27525 42.0264 1.24711 42.0417 1.22817 42.0627C1.19324 42.101 1.16174 42.1423 1.134 42.186C1.11916 42.2075 1.10023 42.2254 1.08743 42.248C1.0492 42.315 1.01979 42.3868 0.999921 42.4614C0.992756 42.4875 0.99378 42.5156 0.989174 42.5422C0.978458 42.5912 0.971952 42.641 0.969727 42.6912V50.1763C0.969805 50.3372 1.01324 50.4951 1.09546 50.6334C1.17768 50.7718 1.29565 50.8854 1.43697 50.9624L8.92158 55.0478C8.96366 55.0683 9.0073 55.0854 9.05208 55.099C9.07614 55.1077 9.09865 55.1205 9.12322 55.1266C9.27216 55.1672 9.42924 55.1672 9.57818 55.1266C9.60275 55.12 9.62527 55.1072 9.64932 55.099C9.69411 55.0854 9.73774 55.0683 9.77982 55.0478L16.135 51.5785L24.3744 57.0642V60.776C24.3744 60.9368 24.4177 61.0947 24.4997 61.233C24.5818 61.3713 24.6995 61.485 24.8406 61.5621L32.3253 65.6475C32.3673 65.668 32.411 65.6852 32.4558 65.6987C32.4798 65.7074 32.5023 65.7202 32.5269 65.7264C32.6758 65.7669 32.8329 65.7669 32.9819 65.7264C33.0064 65.7197 33.0289 65.7069 33.053 65.6987C33.0978 65.6852 33.1414 65.668 33.1835 65.6475L40.6661 61.5611C40.8072 61.484 40.9249 61.3703 41.007 61.232C41.089 61.0937 41.1323 60.9358 41.1323 60.775V57.0631L49.3717 51.5775L55.7269 55.0468C55.769 55.0673 55.8126 55.0844 55.8574 55.098C55.8814 55.1067 55.904 55.1194 55.9285 55.1256C56.0775 55.1661 56.2345 55.1661 56.3835 55.1256C56.4081 55.1189 56.4306 55.1061 56.4546 55.098C56.4994 55.0844 56.5431 55.0673 56.5851 55.0468L64.0672 50.9624C64.2083 50.8853 64.3261 50.7716 64.4081 50.6333C64.4901 50.4949 64.5334 50.3371 64.5334 50.1763V42.6917C64.531 42.6424 64.5245 42.5935 64.514 42.5453C64.5093 42.5177 64.5104 42.4885 64.5032 42.4614C64.4834 42.3868 64.4539 42.315 64.4157 42.248C64.4029 42.2249 64.3835 42.2065 64.3681 42.185C64.3406 42.1418 64.3095 42.1011 64.275 42.0632C64.254 42.0417 64.2274 42.0269 64.2043 42.0074C64.1702 41.9759 64.1335 41.9472 64.0948 41.9215L64.0882 41.9189L64.0825 41.9148L57.0483 37.8862V27.6308L64.0667 23.7997C64.2078 23.7226 64.3256 23.609 64.4076 23.4706C64.4896 23.3323 64.5329 23.1745 64.5329 23.0137V15.5275C64.5309 15.4783 64.5247 15.4293 64.5145 15.3811ZM38.1727 53.3979L32.7521 56.3569L27.3314 53.3979L27.1022 53.2725L32.7521 50.0371L38.402 53.2704L38.1727 53.3979ZM15.9395 22.4809L10.246 25.5884V20.1447L15.9395 17.0372V22.4809ZM9.35045 39.4368L15.0004 42.6722L14.7711 42.7976L9.35045 45.7566L3.92979 42.7976L3.70052 42.6722L9.35045 39.4368ZM16.7598 41.6159L10.246 37.8851V27.6308L16.1795 24.3919L24.3719 29.7224V36.2567L16.7598 41.6159ZM26.1631 12.5137V7.07003L31.8565 10.1795V15.6217L26.1631 12.5137ZM39.3411 12.5137L33.6477 15.6217V10.1795L39.3411 7.07105V12.5137ZM32.7521 25.9819L38.402 29.2173L38.1727 29.3427L32.7521 32.3017L27.3314 29.3427L27.1022 29.2173L32.7521 25.9819ZM26.1631 30.746L31.8565 33.8539V39.2992L26.1631 36.1902V30.746ZM33.6477 33.8539L39.3411 30.746V36.1902L33.6477 39.2992V33.8539ZM41.1323 29.7224L49.3247 24.3903L55.2581 27.6308V37.8857L48.7443 41.6164L41.1323 36.2567V29.7224ZM55.2571 20.1447V25.5884L49.5647 22.4809V17.0372L55.2571 20.1447ZM49.5647 49.6451V44.2009L55.2581 47.3088V52.7525L49.5647 49.6451ZM61.5744 42.7976L56.1537 45.7566L50.7325 42.7976L50.5033 42.6722L56.1532 39.4368L61.8031 42.6722L61.5744 42.7976ZM56.1537 12.2727L61.8036 15.5081L61.5744 15.6335L56.1537 18.5925L50.7325 15.6335L50.5033 15.5081L56.1537 12.2727ZM47.8047 23.2419L40.207 28.1871L33.6477 24.4307V17.6626L39.6558 14.3822L47.773 19.4651V23.0116C47.7735 23.0894 47.7842 23.1669 47.8047 23.2419ZM32.7521 2.30598L38.4015 5.54189L32.9998 8.4907L32.7521 8.62581L32.5044 8.4907L27.1027 5.54138L32.7521 2.30598ZM25.8483 14.3837L31.8565 17.6641V24.4307L25.2971 28.1871L17.6994 23.2419C17.7198 23.1668 17.7303 23.0894 17.7307 23.0116V19.4651L25.8483 14.3837ZM9.35045 12.2727L15.0004 15.5081L14.7711 15.6335L9.35045 18.5925L3.92979 15.6335L3.70052 15.5081L9.35045 12.2727ZM2.76245 17.0372L8.45587 20.1452V25.5884L2.76245 22.4809V17.0372ZM2.76245 44.2014L8.45587 47.3094V52.753L2.76245 49.6451V44.2014ZM10.2471 47.3094L15.9405 44.2014V49.6451L10.2471 52.7525V47.3094ZM17.681 50.4557C17.713 50.3658 17.7303 50.2712 17.7322 50.1758V43.1236L25.3273 37.7746L31.8565 41.3386V48.4859L24.8197 52.5145L24.814 52.5186L24.8074 52.5212C24.7685 52.5471 24.7317 52.576 24.6974 52.6077C24.6743 52.6266 24.6462 52.642 24.6272 52.663C24.5923 52.7012 24.5608 52.7425 24.5331 52.7863C24.5182 52.8078 24.4993 52.8257 24.4865 52.8482C24.4483 52.9153 24.4189 52.987 24.399 53.0616C24.3918 53.0877 24.3929 53.1159 24.3882 53.1425C24.3775 53.1915 24.371 53.2413 24.3688 53.2914V54.9117L17.681 50.4557ZM26.1631 56.58V54.8006L31.8565 57.9086V63.3523L26.1631 60.2448V56.58ZM33.6477 63.3523V57.9091L39.3411 54.8011V60.2453L33.6477 63.3523ZM41.1323 53.2914C41.1299 53.2422 41.1234 53.1932 41.1128 53.145C41.1082 53.1174 41.1093 53.0882 41.1021 53.0611C41.0822 52.9865 41.0528 52.9148 41.0146 52.8477C41.0018 52.8247 40.9823 52.8063 40.967 52.7848C40.9395 52.7416 40.9083 52.7008 40.8738 52.663C40.8529 52.6415 40.8262 52.6266 40.8032 52.6072C40.769 52.5757 40.7324 52.5469 40.6937 52.5212L40.687 52.5186L40.6814 52.5145L33.6477 48.4859V41.3386L40.1768 37.7746L47.7735 43.1236V50.1763C47.7754 50.2717 47.7927 50.3663 47.8247 50.4562L41.1338 54.9122L41.1323 53.2914ZM57.0483 52.752V47.3088L62.7417 44.2009V49.6451L57.0483 52.752ZM57.0483 25.5879V20.1447L62.7417 17.0372V22.4809L57.0483 25.5879Z" fill="#3266E2"/>
</g>
<defs>
<clipPath id="clip0_1671_487">
<rect width="65.5063" height="65.5063" fill="white" transform="translate(0 0.251465)"/>
</clipPath>
</defs>
</svg>
