<svg width="41" height="40" viewBox="0 0 41 40" fill="none" xmlns="http://www.w3.org/2000/svg">
<path d="M20.6521 39.7076C31.5645 39.7076 40.4107 30.8613 40.4107 19.949C40.4107 9.03664 31.5645 0.19043 20.6521 0.19043C9.73977 0.19043 0.893555 9.03664 0.893555 19.949C0.893555 30.8613 9.73977 39.7076 20.6521 39.7076Z" fill="#F68634"/>
<g clip-path="url(#clip0_1787_5)">
<path d="M22.3527 18.5458L29.0064 10.8115H27.4297L21.6523 17.5271L17.0379 10.8115H11.7158L18.6936 20.9667L11.7158 29.0773H13.2926L19.3937 21.9854L24.2668 29.0773H29.5889L22.3523 18.5458H22.3527ZM20.1931 21.0562L19.4861 20.0449L13.8607 11.9985H16.2826L20.8223 18.4922L21.5293 19.5035L27.4304 27.9443H25.0085L20.1931 21.0566V21.0562Z" fill="white"/>
</g>
<defs>
<clipPath id="clip0_1787_5">
<rect width="17.873" height="18.2752" fill="white" transform="translate(11.7158 10.8115)"/>
</clipPath>
</defs>
</svg>
