<svg width="48" height="48" viewBox="0 0 48 48" fill="none" xmlns="http://www.w3.org/2000/svg">
<g clip-path="url(#clip0_1039_415)">
<path fill-rule="evenodd" clip-rule="evenodd" d="M18.0533 26.9066C18.4598 27.1888 18.8083 27.5464 19.08 27.9599C19.5733 28.6533 19.96 29.4399 20.4133 30.1199C20.4896 30.2342 20.6071 30.3147 20.7412 30.3445C20.8753 30.3743 21.0158 30.3512 21.1333 30.2799C21.2489 30.2082 21.3318 30.0941 21.3642 29.962C21.3966 29.8299 21.3759 29.6903 21.3067 29.5733C20.8267 28.7199 20.44 27.7199 19.88 26.9066C19.6097 26.4894 19.277 26.1161 18.8933 25.7999C18.5573 25.4787 18.1342 25.2631 17.6767 25.1802C17.2193 25.0972 16.7475 25.1505 16.32 25.3333C15.3151 25.9224 14.5005 26.7879 13.9733 27.8266C13.4533 28.7599 12.9067 29.72 12.3867 30.7066C11.8667 31.6933 11.3733 32.5999 10.8 33.5199C10.0586 34.7334 9.16214 35.845 8.13333 36.8266C8.05176 36.9132 8.00633 37.0277 8.00633 37.1466C8.00633 37.2656 8.05176 37.38 8.13333 37.4666C8.2183 37.5513 8.33337 37.5988 8.45333 37.5988C8.57329 37.5988 8.68836 37.5513 8.77333 37.4666C9.98167 36.5427 11.0661 35.4673 12 34.2666C12.6854 33.3821 13.3219 32.4607 13.9067 31.5066C14.4933 30.5599 15.0133 29.5733 15.5467 28.6399C15.8221 27.862 16.3121 27.1779 16.96 26.6666C17.1459 26.5965 17.3482 26.5819 17.5422 26.6245C17.7363 26.6671 17.9139 26.7651 18.0533 26.9066Z" fill="black"/>
<path fill-rule="evenodd" clip-rule="evenodd" d="M28.2933 19.2666C27.9763 19.4131 27.6803 19.6015 27.4133 19.8266C25.9328 21.4123 24.697 23.2099 23.7467 25.16C23.7467 25.2933 23.68 25.44 23.64 25.5733C23.627 25.6259 23.627 25.6808 23.64 25.7333C23.2517 27.3492 22.7754 28.9427 22.2133 30.5066C21.7829 31.5599 21.2516 32.5691 20.6267 33.52C19.6856 34.9775 18.6617 36.3798 17.56 37.72C17.5164 37.7611 17.4817 37.8107 17.458 37.8657C17.4342 37.9208 17.422 37.9801 17.422 38.04C17.422 38.0999 17.4342 38.1592 17.458 38.2142C17.4817 38.2692 17.5164 38.3188 17.56 38.36C17.6466 38.4415 17.761 38.487 17.88 38.487C17.9989 38.487 18.1134 38.4415 18.2 38.36C19.3891 37.0423 20.502 35.6578 21.5333 34.2133C22.2462 33.2328 22.8666 32.1883 23.3867 31.0933C23.9098 29.8875 24.3551 28.6494 24.72 27.3866C24.9951 27.6759 25.304 27.931 25.64 28.1466C25.9908 28.3591 26.384 28.492 26.7918 28.5358C27.1996 28.5795 27.6121 28.5332 28 28.4C28.2511 28.3076 28.4888 28.182 28.7067 28.0266C28.9249 27.8705 29.126 27.6917 29.3067 27.4933L29.8533 27.8133C30.5845 28.1122 31.3706 28.2531 32.16 28.2266C32.7377 28.1826 33.3025 28.0335 33.8267 27.7866C34.4667 29.3733 35.16 30.9733 35.84 32.52C36.7132 34.4671 37.8238 36.2988 39.1467 37.9733C39.2367 38.0579 39.3539 38.1078 39.4773 38.1138C39.6008 38.1199 39.7223 38.0818 39.8202 38.0064C39.9181 37.9309 39.9859 37.8231 40.0115 37.7022C40.0371 37.5813 40.0189 37.4553 39.96 37.3466C38.7615 35.695 37.7675 33.9042 37 32.0133C35.7733 29.1466 34.8533 26.1066 33.6667 23.24C33.3733 22.56 33.0667 21.9066 32.72 21.2266C32.0679 20.4197 31.2995 19.7142 30.44 19.1333C30.2421 18.9877 30.0054 18.9042 29.76 18.8933H29.5467C29.1199 18.9853 28.7008 19.1101 28.2933 19.2666ZM32.12 26.8933C31.5404 26.8223 30.9819 26.6316 30.48 26.3333C30.2209 26.1559 29.9716 25.9645 29.7333 25.76C29.5978 25.6835 29.4548 25.621 29.3067 25.5733C29.1561 25.5311 28.9971 25.5286 28.8453 25.5659C28.6934 25.6033 28.5538 25.6794 28.44 25.7866C28.3207 25.9036 28.2094 26.0283 28.1067 26.16C27.986 26.3139 27.8473 26.4527 27.6933 26.5733C27.5798 26.6889 27.4436 26.7796 27.2933 26.84C27.0793 26.9301 26.8471 26.9686 26.6155 26.9524C26.3839 26.9362 26.1593 26.8657 25.96 26.7466C25.6749 26.6034 25.4066 26.429 25.16 26.2266C25.16 26.0666 25.2667 25.8933 25.3333 25.72C26.4962 23.8586 27.8845 22.1479 29.4667 20.6266C29.4667 20.8533 31.88 23.2933 32.1333 23.88C32.5733 24.8266 32.96 25.8 33.3467 26.7733C32.9488 26.8895 32.5328 26.9302 32.12 26.8933Z" fill="black"/>
<path fill-rule="evenodd" clip-rule="evenodd" d="M27.8267 16.2799C27.8933 16.6399 27.96 17.1599 28.04 17.6132C28.3733 18.2132 29.2133 18.6932 29.4667 17.3732V17.1999C30.1917 17.1621 30.911 17.0504 31.6133 16.8665C31.979 16.7674 32.3357 16.638 32.68 16.4799C33.0188 16.3114 33.3482 16.1244 33.6667 15.9199C34.3999 15.4186 35.0713 14.8323 35.6667 14.1732C37.3333 12.6799 37.2133 13.3332 33.5867 11.3999C32.987 11.0501 32.3682 10.7341 31.7333 10.4532C30.6196 9.97124 29.4436 9.64808 28.24 9.49321C28.1831 9.47722 28.1235 9.47286 28.0649 9.4804C28.0062 9.48793 27.9497 9.50721 27.8987 9.53708C27.8476 9.56695 27.8032 9.6068 27.7679 9.65424C27.7326 9.70168 27.7072 9.75575 27.6933 9.81321C27.6711 9.90366 27.6801 9.99896 27.7188 10.0837C27.7575 10.1684 27.8237 10.2375 27.9067 10.2799C27.8021 10.3044 27.7092 10.3642 27.6437 10.4492C27.5781 10.5342 27.5438 10.6392 27.5467 10.7465C27.5467 11.9199 27.4533 13.0665 27.5467 14.2399C27.6 14.9199 27.72 15.5999 27.8267 16.2799ZM30.6667 11.8132C31.2636 12.1641 31.8827 12.4759 32.52 12.7465C33.2656 13.0591 34.0375 13.3045 34.8267 13.4799C34.4859 13.6934 34.1343 13.8892 33.7733 14.0665C33.3733 14.2799 32.9467 14.4265 32.5333 14.6132C32.12 14.7999 31.7067 14.9732 31.3067 15.1732C30.6844 15.4843 30.0578 15.7777 29.4267 16.0532C29.4154 15.6608 29.3843 15.2692 29.3333 14.8799C29.2948 14.4317 29.228 13.9863 29.1333 13.5465C28.9333 12.5465 28.6533 11.5999 28.4267 10.6132V10.5065C29.1867 10.9199 29.92 11.3865 30.6667 11.8132Z" fill="black"/>
</g>
<defs>
<clipPath id="clip0_1039_415">
<rect width="32" height="32" fill="white" transform="translate(8 8)"/>
</clipPath>
</defs>
</svg>
