<svg width="48" height="48" viewBox="0 0 48 48" fill="none" xmlns="http://www.w3.org/2000/svg">
<g clip-path="url(#clip0_1039_387)">
<path fill-rule="evenodd" clip-rule="evenodd" d="M33.72 13.3334C33.6133 10.8934 31.2 11.2401 30.4267 11.7201C30.0509 11.9805 29.7553 12.3407 29.5733 12.7601C29.4326 13.105 29.3967 13.4839 29.4702 13.8491C29.5437 14.2144 29.7234 14.5498 29.9867 14.8134C30.2148 15.0786 30.497 15.292 30.8144 15.4391C31.1317 15.5863 31.4769 15.6639 31.8267 15.6667C32.3766 15.5845 32.8759 15.2994 33.2263 14.8676C33.5766 14.4358 33.7528 13.8885 33.72 13.3334ZM31.72 14.0001C31.611 13.9886 31.5053 13.9556 31.4092 13.903C31.3131 13.8503 31.2284 13.7791 31.16 13.6934C31.0337 13.6031 30.9364 13.478 30.88 13.3334C30.88 13.3334 30.8 13.2534 30.8133 13.2134C30.8449 12.9636 30.9466 12.7278 31.1067 12.5334C31.2026 12.4274 31.3278 12.3523 31.4665 12.3178C31.6052 12.2832 31.7511 12.2907 31.8855 12.3394C32.0199 12.388 32.1368 12.4755 32.2213 12.5908C32.3058 12.7061 32.3541 12.8439 32.36 12.9867C32.4267 13.4534 32.2 14.0134 31.72 14.0001Z" fill="black"/>
<path fill-rule="evenodd" clip-rule="evenodd" d="M22.6667 15.8932C22.7684 15.8762 22.8672 15.8448 22.96 15.7998C24.16 15.2132 24.0533 15.0665 24.0533 14.9598C24.0533 14.4132 22.8 14.2398 22.72 14.2265C22.5919 14.2061 22.4614 14.2061 22.3333 14.2265C22.2104 14.2557 22.0932 14.3053 21.9867 14.3732C20.8533 15.0132 20.88 15.2398 20.9333 15.4798C20.9733 15.9998 22.5867 15.8932 22.6667 15.8932Z" fill="black"/>
<path fill-rule="evenodd" clip-rule="evenodd" d="M17.5333 17.5067C17.6132 17.4606 17.6852 17.4021 17.7467 17.3334C18.6 16.4 18.44 16.2534 18.4 16.16C18.2133 15.6934 16.96 16 16.9333 16C16.8139 16.034 16.7012 16.0882 16.6 16.16C16.5017 16.234 16.4123 16.319 16.3333 16.4134C15.48 17.5334 15.8133 17.7467 15.8933 17.8667C16.1733 18.1334 17.5067 17.52 17.5333 17.5067Z" fill="black"/>
<path fill-rule="evenodd" clip-rule="evenodd" d="M12.48 23.0934C12.7866 23.2 12.9333 23.0934 13.68 22.1334C13.7499 22.0407 13.8123 21.9426 13.8666 21.8401C13.9303 21.7376 13.9754 21.6248 14 21.5067C14.3466 20.1734 14.08 20.0667 14 20.0001C13.6266 19.7734 12.6666 20.6534 12.6666 20.7601C12.5804 20.8607 12.5086 20.9729 12.4533 21.0934C12.3912 21.2155 12.3463 21.3456 12.32 21.48C12 22.9867 12.36 23.0534 12.48 23.0934Z" fill="black"/>
<path fill-rule="evenodd" clip-rule="evenodd" d="M12.4667 27.8801C12.48 27.7604 12.48 27.6397 12.4667 27.5201C12.4526 27.4063 12.4258 27.2945 12.3867 27.1867C11.92 25.8534 11.68 25.9467 11.56 25.9467C11.1333 25.9467 10.8533 27.0667 10.8133 27.2801C10.7933 27.4171 10.7933 27.5563 10.8133 27.6934C10.8392 27.8262 10.8794 27.9559 10.9333 28.0801C11.5067 29.4934 11.8533 29.3201 11.9733 29.2934C12.0933 29.2667 12.3867 29.2401 12.4667 27.8801Z" fill="black"/>
<path fill-rule="evenodd" clip-rule="evenodd" d="M13.6133 32.5333C13.585 32.4493 13.5396 32.3721 13.48 32.3066C12.6533 31.32 12.4133 31.5466 12.3866 31.5466C11.96 31.68 12.0133 32.88 12.0133 32.88C12.0156 32.993 12.0478 33.1034 12.1066 33.2C12.153 33.3029 12.2161 33.3975 12.2933 33.48C13.1333 34.3466 13.4266 34.24 13.6266 34.12C13.8266 34 13.6266 32.56 13.6133 32.5333Z" fill="black"/>
<path fill-rule="evenodd" clip-rule="evenodd" d="M16.7466 36.8001C16.5969 36.6403 16.4265 36.5013 16.24 36.3867C16.24 36.3867 14.8 35.6534 14.5066 36.0001C14.2133 36.3467 15.1066 37.4934 15.1333 37.5067C15.2262 37.6263 15.3337 37.7338 15.4533 37.8267C15.5807 37.9123 15.7144 37.988 15.8533 38.0534C17.36 38.7201 17.5333 38.2934 17.6 38.1601C17.6666 38.0267 17.76 37.8134 16.7466 36.8001Z" fill="black"/>
<path fill-rule="evenodd" clip-rule="evenodd" d="M34.04 34.4399C33.9576 34.5179 33.8817 34.6027 33.8133 34.6932C33.7477 34.7908 33.6898 34.8934 33.64 34.9999C33.12 36.2666 33.3467 36.3332 33.44 36.4532C33.8 36.7866 34.8933 35.9599 34.92 35.9466C35.0215 35.8597 35.1072 35.7559 35.1733 35.6399C35.2512 35.5287 35.314 35.4076 35.36 35.2799C35.8533 33.8666 35.48 33.7599 35.36 33.6932C35.24 33.6266 34.9067 33.5999 34.04 34.4399Z" fill="black"/>
<path fill-rule="evenodd" clip-rule="evenodd" d="M36.3067 27.1734C35.9867 27.1734 35.8667 27.1734 35.48 28.7734C35.48 28.9201 35.4133 29.0667 35.3867 29.2267C35.36 29.3867 35.3867 29.5334 35.3867 29.6801C35.3867 31.3601 35.6667 31.3067 35.8133 31.3467C36.3067 31.4801 36.8533 30.2267 36.96 29.9201C37.0083 29.7496 37.044 29.5758 37.0667 29.4001C37.0865 29.2228 37.0865 29.044 37.0667 28.8667C36.8533 27.0934 36.4667 27.1734 36.3067 27.1734Z" fill="black"/>
<path fill-rule="evenodd" clip-rule="evenodd" d="M37.08 23.2132C37.0354 23.0469 36.9728 22.8859 36.8933 22.7332C36.0667 21.1465 35.6933 21.3999 35.56 21.3999C35.4267 21.3999 35.16 21.6532 35.4133 23.1865C35.4424 23.4426 35.5051 23.6936 35.6 23.9332C35.6 23.9332 36.3333 25.5465 36.8267 25.3999C36.9867 25.3999 37.3067 25.2932 37.1867 23.6665C37.1732 23.511 37.1373 23.3583 37.08 23.2132Z" fill="black"/>
<path fill-rule="evenodd" clip-rule="evenodd" d="M27.2267 16.3466C27.4431 16.9463 27.7015 17.53 28 18.0933C28.3469 18.727 28.7485 19.3293 29.2 19.8933C29.8692 20.6957 30.5814 21.4612 31.3334 22.1866C31.3721 22.2336 31.4202 22.272 31.4746 22.2994C31.529 22.3268 31.5885 22.3426 31.6493 22.3459C31.7102 22.3491 31.771 22.3397 31.828 22.3182C31.885 22.2966 31.9369 22.2635 31.9804 22.2209C32.0239 22.1783 32.0582 22.1272 32.0809 22.0706C32.1036 22.0141 32.1143 21.9535 32.1124 21.8926C32.1105 21.8318 32.096 21.7719 32.0697 21.717C32.0435 21.662 32.0061 21.6131 31.96 21.5733C31.2701 20.8427 30.6287 20.0677 30.04 19.2533C29.6613 18.7289 29.3395 18.1658 29.08 17.5733C28.8366 17.0649 28.6316 16.539 28.4667 16C28.3116 15.4489 28.1957 14.8874 28.12 14.32C28.0925 13.9338 28.0925 13.5461 28.12 13.16C28.1223 12.8194 28.1809 12.4815 28.2934 12.16C28.5502 11.3293 29.1043 10.6224 29.8497 10.1747C30.5951 9.72697 31.4793 9.56982 32.3334 9.7333C33.1882 9.84358 33.9676 10.2794 34.509 10.9501C35.0505 11.6207 35.3123 12.4744 35.24 13.3333C35.1803 14.701 34.9059 16.0509 34.4267 17.3333C33.9393 18.6073 33.1846 19.7622 32.2133 20.72C32.1179 20.8101 32.0621 20.9345 32.0584 21.0658C32.0546 21.1971 32.1032 21.3245 32.1934 21.42C32.2835 21.5154 32.4079 21.5712 32.5392 21.5749C32.6705 21.5787 32.7979 21.5301 32.8934 21.44C34.0316 20.4307 34.9409 19.1896 35.56 17.8C36.1515 16.4255 36.5292 14.9687 36.68 13.48C36.8643 12.2276 36.5478 10.9531 35.7992 9.93241C35.0505 8.91172 33.9299 8.22704 32.68 8.02663C31.4424 7.76856 30.1531 7.98246 29.0652 8.62635C27.9772 9.27023 27.1693 10.2976 26.8 11.5066C26.671 11.9075 26.6035 12.3256 26.6 12.7466C26.5619 13.3252 26.5842 13.9061 26.6667 14.48C26.7998 15.117 26.9871 15.7415 27.2267 16.3466Z" fill="black"/>
<path fill-rule="evenodd" clip-rule="evenodd" d="M34.92 26.8799C34.9816 25.9046 34.9369 24.9255 34.7867 23.9599C34.651 23.3033 34.4314 22.667 34.1333 22.0665C34.1075 22.0068 34.0698 21.9529 34.0225 21.9081C33.9752 21.8634 33.9193 21.8287 33.8582 21.8063C33.7971 21.7838 33.732 21.774 33.667 21.7775C33.602 21.781 33.5384 21.7977 33.48 21.8265C33.3618 21.8816 33.2701 21.9812 33.2252 22.1037C33.1802 22.2261 33.1855 22.3614 33.24 22.4799C33.5467 23.1407 33.7405 23.8483 33.8133 24.5732C33.8597 25.2569 33.8597 25.9429 33.8133 26.6265C32.48 26.7865 31.1467 26.9999 29.8133 27.1465H29.52C29.5115 26.656 29.4759 26.1664 29.4133 25.6799C29.2833 24.7717 29.0645 23.8786 28.76 23.0132C28.0394 21.0279 27.0088 19.1694 25.7067 17.5065C25.6612 17.4518 25.6041 17.4078 25.5395 17.3778C25.475 17.3478 25.4045 17.3326 25.3333 17.3332C25.4063 17.251 25.4527 17.1488 25.4667 17.0399C25.4703 16.9827 25.4624 16.9255 25.4434 16.8715C25.4244 16.8175 25.3947 16.7678 25.3561 16.7255C25.3176 16.6832 25.2709 16.6491 25.2189 16.6253C25.1669 16.6014 25.1106 16.5882 25.0533 16.5865C23.0751 16.4184 21.0947 16.8854 19.4 17.9199C17.7753 18.999 16.4093 20.4242 15.4 22.0932C14.1369 24.175 13.624 26.6263 13.9467 29.0399C14.066 30.2857 14.4694 31.4876 15.1259 32.5531C15.7823 33.6187 16.6743 34.5196 17.7333 35.1865C19.4172 36.1349 21.2952 36.6867 23.2245 36.7999C25.1538 36.9131 27.0834 36.5848 28.8667 35.8399C30.6464 35.1093 32.1706 33.8689 33.2476 32.2748C34.3246 30.6806 34.9064 28.8037 34.92 26.8799ZM27.2 23.5065C27.4209 24.3143 27.5989 25.1333 27.7333 25.9599C27.7333 26.3999 27.8267 26.8399 27.88 27.2932C26.5467 27.3732 25.2933 27.2932 23.9733 27.2932C23.1867 27.2932 22.3867 27.2932 21.6 27.1999C21.6 26.9199 21.6 26.6265 21.6933 26.3465C21.8379 25.4472 22.0338 24.5568 22.28 23.6799C22.9333 21.2799 24.5067 17.3999 24.9467 18.0399C25.9468 19.7492 26.7051 21.5889 27.2 23.5065ZM20 18.9332C21.1372 18.1818 22.4427 17.7237 23.8 17.5999C22.5034 19.322 21.4699 21.2273 20.7333 23.2532C20.4053 24.1854 20.1599 25.1446 20 26.1199V27.1865C18.4667 27.0665 16.96 26.8665 15.4667 26.6265C15.5403 25.3165 15.9096 24.0402 16.5467 22.8932C17.3871 21.3315 18.5672 19.9782 20 18.9332ZM15.4667 28.9199C15.4091 28.5224 15.3779 28.1215 15.3733 27.7199C16.8267 28.0799 18.32 28.3732 19.84 28.5999V29.1065C19.8852 31.021 20.1582 32.9233 20.6533 34.7732C19.922 34.5494 19.2194 34.2406 18.56 33.8532C17.7098 33.3155 16.9922 32.5925 16.4611 31.7381C15.93 30.8837 15.5992 29.9203 15.4933 28.9199H15.4667ZM21.7333 35.0399C21.3841 33.096 21.25 31.1197 21.3333 29.1465V28.8132C22.4 28.9199 23.4667 28.9999 24.5333 28.9999C25.6 28.9999 26.8 28.9065 27.9067 28.7999C28.0002 30.6708 27.8704 32.5463 27.52 34.3865C27.4793 34.4985 27.4793 34.6212 27.52 34.7332C25.6608 35.3422 23.6734 35.448 21.76 35.0399H21.7333ZM28.6 34.3732C29.1657 32.4758 29.4795 30.5124 29.5333 28.5332L29.96 28.4532C31.1867 28.1865 32.3867 27.8665 33.6133 27.5999C33.4469 29.0663 32.8989 30.4635 32.0239 31.652C31.1489 32.8405 29.9775 33.7787 28.6267 34.3732H28.6Z" fill="black"/>
<path fill-rule="evenodd" clip-rule="evenodd" d="M21.48 38.44L21.0533 38.3334C20.9069 38.3202 20.7597 38.3202 20.6133 38.3334C18.9866 38.3334 19 38.6 18.96 38.7334C18.8266 39.2134 20.16 39.8267 20.2933 39.8934C20.4548 39.9599 20.6258 40.0004 20.8 40.0134C20.9777 40.0299 21.1567 40.0255 21.3333 40C23.08 39.8534 23.0133 39.3867 23.0133 39.2267C22.9866 38.8267 22.8266 38.8134 21.48 38.44Z" fill="black"/>
<path fill-rule="evenodd" clip-rule="evenodd" d="M26.2933 38.1199H25.9467C25.8314 38.1406 25.7193 38.1765 25.6133 38.2265C24.28 38.7599 24.4 38.9865 24.4 39.1065C24.4 39.5465 25.5733 39.7599 25.8533 39.7865C25.9904 39.8064 26.1296 39.8064 26.2667 39.7865C26.4054 39.7539 26.5397 39.7046 26.6667 39.6398C28 38.9598 27.8533 38.5865 27.8133 38.4665C27.6933 38.1465 27.5067 38.1065 26.2933 38.1199Z" fill="black"/>
<path fill-rule="evenodd" clip-rule="evenodd" d="M30.88 37.0001C30.6751 37.033 30.474 37.0866 30.28 37.1601C30.28 37.1601 28.88 37.9067 28.9466 38.3601C29.0133 38.8134 30.5066 38.7467 30.5333 38.7467C30.6836 38.7363 30.8317 38.7049 30.9733 38.6534C31.1191 38.6106 31.2582 38.5478 31.3866 38.4667C32.6 37.7201 32.5866 37.3467 32.4533 37.1334C32.32 36.9201 32.2933 36.7467 30.88 37.0001Z" fill="black"/>
</g>
<defs>
<clipPath id="clip0_1039_387">
<rect width="32" height="32" fill="white" transform="translate(8 8)"/>
</clipPath>
</defs>
</svg>
