<svg width="48" height="48" viewBox="0 0 48 48" fill="none" xmlns="http://www.w3.org/2000/svg">
<g clip-path="url(#clip0_1039_405)">
<path fill-rule="evenodd" clip-rule="evenodd" d="M17.6267 27.0802C17.9852 27.1266 18.3482 27.1266 18.7067 27.0802C19.0562 27.0288 19.4 26.944 19.7333 26.8268C20.4802 26.5422 21.1952 26.1803 21.8667 25.7468C21.9673 25.6953 22.0442 25.6069 22.0814 25.5002C22.1186 25.3934 22.1134 25.2764 22.0667 25.1735C22.0128 25.0751 21.9243 25.0003 21.8184 24.9633C21.7125 24.9264 21.5967 24.93 21.4933 24.9735C20.7853 25.222 20.0585 25.4138 19.32 25.5468C18.8794 25.6372 18.4343 25.7039 17.9867 25.7468H17.32C18.0981 24.7274 18.5657 23.5053 18.6667 22.2268C18.9333 19.5602 17.6133 16.8935 14.52 16.6268C13.5259 16.6209 12.5446 16.8511 11.6568 17.2985C10.769 17.7459 10.0001 18.3976 9.41333 19.2002C8.75794 19.9692 8.36666 20.9284 8.29706 21.9364C8.22746 22.9445 8.48319 23.9483 9.02666 24.8002C9.37118 25.3129 9.82694 25.7413 10.36 26.0535L10.8667 26.3202C9.84389 27.3659 9.06925 28.6281 8.59999 30.0135C8.24967 31.0877 8.04781 32.2047 7.99999 33.3335C7.94045 34.9801 8.04766 36.6285 8.31999 38.2535C8.3232 38.3138 8.33877 38.3727 8.36575 38.4268C8.39272 38.4808 8.43052 38.5286 8.4768 38.5674C8.52307 38.6062 8.57683 38.635 8.63472 38.6521C8.69262 38.6692 8.75341 38.6742 8.81333 38.6668C8.92177 38.6534 9.02094 38.5989 9.0904 38.5146C9.15986 38.4303 9.19431 38.3225 9.18666 38.2135C9.10436 36.621 9.15341 35.0245 9.33333 33.4402C9.44964 32.4252 9.65033 31.4217 9.93333 30.4402C10.3064 29.0712 10.9452 27.7891 11.8133 26.6668C12.1733 26.7602 12.5333 26.8535 12.8933 26.9202C12.9906 26.9396 13.0916 26.9196 13.1741 26.8646C13.2566 26.8096 13.3139 26.7241 13.3333 26.6268C13.3528 26.5296 13.3328 26.4286 13.2778 26.3461C13.2228 26.2636 13.1372 26.2063 13.04 26.1868C10.3733 25.5735 9.89333 24.3335 9.87999 24.2935C9.50096 23.6114 9.35204 22.8253 9.45532 22.0518C9.55861 21.2784 9.9086 20.5589 10.4533 20.0002C10.919 19.3801 11.5233 18.8775 12.2178 18.5326C12.9123 18.1876 13.6779 18.0099 14.4533 18.0135C16.7333 18.1468 17.64 20.1335 17.52 22.1068C17.5335 23.1388 17.2045 24.1462 16.5844 24.9713C15.9644 25.7964 15.0883 26.3927 14.0933 26.6668C13.9837 26.6864 13.8856 26.7469 13.8188 26.8359C13.752 26.925 13.7215 27.0361 13.7333 27.1468C13.7529 27.2555 13.8139 27.3523 13.9034 27.417C13.9929 27.4816 14.104 27.509 14.2133 27.4935C14.9347 27.3899 15.6181 27.1055 16.2 26.6668C16.6517 26.8766 17.1328 27.016 17.6267 27.0802Z" fill="black"/>
<path fill-rule="evenodd" clip-rule="evenodd" d="M22.0933 27.6002C21.549 28.1153 20.9447 28.563 20.2933 28.9336C19.6488 29.2901 18.9697 29.5805 18.2667 29.8002C17.7256 29.9334 17.1916 30.0936 16.6667 30.2802C16.2948 30.4171 15.9801 30.6755 15.7733 31.0136C15.473 31.7481 15.3453 32.5418 15.4 33.3336C15.4 35.0002 15.9467 37.0536 16.0267 38.1069C16.0283 38.1624 16.0412 38.2169 16.0644 38.2673C16.0876 38.3177 16.1207 38.3629 16.1618 38.4003C16.2028 38.4376 16.251 38.4663 16.3034 38.4846C16.3557 38.5029 16.4113 38.5105 16.4667 38.5069C16.5209 38.5052 16.5744 38.4928 16.6239 38.4704C16.6733 38.448 16.7179 38.4161 16.7551 38.3765C16.7922 38.3368 16.8212 38.2903 16.8404 38.2394C16.8595 38.1886 16.8684 38.1345 16.8667 38.0802C16.8667 37.1736 16.72 35.5069 16.72 33.9736C16.72 30.5202 17.5333 31.4936 18.76 31.0136C19.4928 30.6676 20.1933 30.2571 20.8533 29.7869C21.5251 29.3094 22.1343 28.7494 22.6667 28.1202C22.7039 28.0865 22.7336 28.0453 22.754 27.9994C22.7743 27.9535 22.7848 27.9038 22.7848 27.8536C22.7848 27.8033 22.7743 27.7536 22.754 27.7077C22.7336 27.6618 22.7039 27.6206 22.6667 27.5869C22.6307 27.5457 22.586 27.5129 22.536 27.4909C22.4859 27.4688 22.4316 27.4581 22.3769 27.4593C22.3222 27.4606 22.2684 27.4739 22.2194 27.4982C22.1704 27.5226 22.1274 27.5574 22.0933 27.6002Z" fill="black"/>
<path fill-rule="evenodd" clip-rule="evenodd" d="M35.52 25.5068C34.8862 25.5736 34.2471 25.5736 33.6133 25.5068C31.72 25.2402 29.1467 23.5868 30.0533 20.8802C30.359 20.0898 30.8486 19.3836 31.4816 18.8201C32.1147 18.2567 32.8728 17.8522 33.6933 17.6402C34.5596 17.3777 35.4879 17.4049 36.3373 17.7177C37.1867 18.0305 37.9109 18.6119 38.4 19.3735C38.6429 19.7631 38.806 20.1971 38.8799 20.6502C38.9537 21.1034 38.9368 21.5667 38.8301 22.0132C38.7235 22.4598 38.5291 22.8807 38.2585 23.2515C37.9878 23.6224 37.6461 23.9358 37.2533 24.1735C37.1625 24.238 37.1004 24.3355 37.0805 24.4451C37.0606 24.5547 37.0843 24.6678 37.1467 24.7602C37.1761 24.8082 37.2153 24.8494 37.2617 24.8812C37.3082 24.913 37.3608 24.9346 37.4161 24.9447C37.4715 24.9548 37.5284 24.953 37.583 24.9396C37.6377 24.9262 37.6889 24.9014 37.7333 24.8668C38.245 24.5801 38.6947 24.1945 39.056 23.7325C39.4174 23.2704 39.6834 22.7412 39.8385 22.1755C39.9935 21.6098 40.0346 21.0189 39.9594 20.4371C39.8841 19.8554 39.694 19.2944 39.4 18.7868C38.8056 17.7581 37.8908 16.9523 36.7953 16.4924C35.6998 16.0325 34.4839 15.9439 33.3333 16.2402C32.2889 16.5131 31.3277 17.039 30.5347 17.7715C29.7417 18.504 29.1414 19.4206 28.7867 20.4402C28.5639 21.122 28.5243 21.8505 28.6717 22.5525C28.8191 23.2545 29.1484 23.9055 29.6267 24.4402C29.4066 24.363 29.1927 24.2695 28.9867 24.1602C28.2902 23.6966 27.718 23.0694 27.32 22.3335C26.9935 21.7458 26.5799 21.2108 26.0933 20.7468C25.7027 20.3546 25.2188 20.068 24.687 19.9141C24.1553 19.7602 23.5931 19.7439 23.0533 19.8668C22.611 20.0538 22.2222 20.3479 21.9219 20.7227C21.6216 21.0975 21.4194 21.5411 21.3333 22.0135C21.2542 22.3151 21.2542 22.6319 21.3333 22.9335C21.4741 23.3018 21.6343 23.6623 21.8133 24.0135C21.9926 24.3589 22.1929 24.6928 22.4133 25.0135C22.9613 25.8546 23.6056 26.6287 24.3333 27.3202C25.0689 28.0138 25.894 28.6057 26.7867 29.0802C27.5012 29.3807 28.2311 29.6433 28.9733 29.8668C29.195 29.9463 29.4056 30.0539 29.6 30.1868C29.7378 30.6792 29.8271 31.1838 29.8667 31.6935C29.9665 32.4894 30.0066 33.2916 29.9867 34.0935C29.9568 35.3202 29.8589 36.5443 29.6933 37.7602C29.6774 37.8592 29.7015 37.9605 29.7603 38.0417C29.819 38.123 29.9077 38.1776 30.0067 38.1935C30.1057 38.2094 30.207 38.1853 30.2882 38.1266C30.3695 38.0678 30.4241 37.9792 30.44 37.8802C30.64 36.6535 30.84 35.4002 30.92 34.1468C30.9799 33.299 30.9799 32.448 30.92 31.6002C30.9043 31.0505 30.8508 30.5025 30.76 29.9602C30.7038 29.7236 30.5839 29.5069 30.4133 29.3335C30.1201 29.0832 29.7923 28.8766 29.44 28.7202C28.7733 28.4135 27.9867 28.2135 27.4133 27.8935C26.6386 27.4508 25.9219 26.9133 25.28 26.2935C24.6392 25.6685 24.063 24.9806 23.56 24.2402C23.3733 23.9468 23.2 23.6535 23.04 23.3468C22.48 22.3335 22.6133 22.3868 22.6933 22.1068C22.7274 21.8956 22.8119 21.6957 22.9395 21.5239C23.0671 21.3522 23.2342 21.2137 23.4267 21.1202C23.88 20.9468 24.48 21.1202 25.3333 21.7202C26.1867 22.3202 26.8 24.1468 28.4667 25.0268C29.254 25.4273 30.1306 25.6201 31.0133 25.5868C31.1421 25.6702 31.2756 25.7459 31.4133 25.8135C32.0696 26.1109 32.7743 26.287 33.4933 26.3335C34.1836 26.3687 34.8757 26.3374 35.56 26.2402C35.6087 26.2353 35.6559 26.2206 35.6986 26.1969C35.7414 26.1732 35.779 26.141 35.8089 26.1023C35.8389 26.0637 35.8606 26.0193 35.8728 25.9719C35.885 25.9245 35.8875 25.8752 35.88 25.8268C35.8732 25.7372 35.8318 25.6538 35.7647 25.5941C35.6975 25.5344 35.6098 25.5031 35.52 25.5068Z" fill="black"/>
<path fill-rule="evenodd" clip-rule="evenodd" d="M36.72 24.96C36.6863 24.9175 36.6437 24.8828 36.5953 24.8585C36.5468 24.8341 36.4936 24.8205 36.4394 24.8188C36.3851 24.8171 36.3312 24.8272 36.2813 24.8484C36.2313 24.8697 36.1866 24.9015 36.1503 24.9418C36.1139 24.9821 36.0868 25.0298 36.0708 25.0817C36.0547 25.1335 36.0502 25.1882 36.0575 25.242C36.0647 25.2957 36.0837 25.3473 36.1129 25.393C36.1421 25.4387 36.1809 25.4775 36.2267 25.5067C37.3349 26.7609 38.0328 28.3242 38.2267 29.9867C38.4004 30.9829 38.5073 31.9896 38.5467 33C38.5961 34.5655 38.5561 36.1325 38.4267 37.6934C38.4192 37.7477 38.4226 37.803 38.4367 37.856C38.4508 37.909 38.4754 37.9587 38.5089 38.0021C38.5424 38.0456 38.5842 38.0819 38.6319 38.109C38.6796 38.1361 38.7322 38.1535 38.7867 38.16C38.896 38.1756 39.0071 38.1482 39.0966 38.0835C39.1861 38.0189 39.2471 37.922 39.2667 37.8134C39.6087 36.2291 39.8183 34.6191 39.8933 33C39.9373 31.8898 39.8387 30.7785 39.6 29.6934C39.202 27.8357 38.1869 26.1674 36.72 24.96Z" fill="black"/>
<path fill-rule="evenodd" clip-rule="evenodd" d="M17.52 14.2001C17.5846 14.4251 17.6694 14.6437 17.7733 14.8535C17.8667 15.0603 17.9736 15.2607 18.0933 15.4535C18.4002 15.9206 18.7387 16.3661 19.1067 16.7868C19.1569 16.8708 19.2371 16.9327 19.3311 16.9599C19.4251 16.9872 19.526 16.9777 19.6133 16.9335C19.6999 16.8857 19.7639 16.8055 19.7914 16.7105C19.8189 16.6155 19.8076 16.5135 19.76 16.4268C19.5867 15.9068 19.4933 15.4001 19.32 14.8935C19.2449 14.679 19.1558 14.4696 19.0533 14.2668C18.9599 14.0643 18.8529 13.8683 18.7333 13.6801C18.4533 13.2135 18.1467 12.7735 17.84 12.3468C17.7904 12.2473 17.7039 12.1712 17.5989 12.1345C17.494 12.0978 17.3789 12.1035 17.2781 12.1505C17.1773 12.1974 17.0989 12.2818 17.0594 12.3857C17.0199 12.4896 17.0225 12.6048 17.0667 12.7068C17.2267 13.1868 17.3333 13.6935 17.52 14.2001Z" fill="black"/>
<path fill-rule="evenodd" clip-rule="evenodd" d="M23.56 14.5201C23.5599 14.6169 23.5974 14.7099 23.6646 14.7795C23.7317 14.8491 23.8233 14.89 23.92 14.8935C23.9695 14.8971 24.0192 14.8905 24.066 14.8741C24.1128 14.8577 24.1557 14.8317 24.192 14.7979C24.2283 14.7641 24.2572 14.7232 24.2769 14.6777C24.2967 14.6322 24.3068 14.5831 24.3067 14.5335C24.4267 13.9735 24.5733 13.4535 24.64 12.8801C24.6536 12.6448 24.6536 12.4088 24.64 12.1735C24.6529 11.9381 24.6529 11.7022 24.64 11.4668C24.64 10.9201 24.48 10.3868 24.4 9.82678C24.4002 9.7181 24.3589 9.61343 24.2846 9.53414C24.2103 9.45484 24.1085 9.40691 24 9.40012C23.9446 9.39833 23.8894 9.4077 23.8377 9.42767C23.786 9.44764 23.7389 9.4778 23.6991 9.51636C23.6593 9.55492 23.6276 9.6011 23.606 9.65213C23.5844 9.70317 23.5733 9.75803 23.5733 9.81345C23.48 10.3735 23.3733 10.9068 23.32 11.4668C23.3068 11.7022 23.3068 11.9381 23.32 12.1735C23.3069 12.4088 23.3069 12.6447 23.32 12.8801C23.3467 13.4401 23.48 13.9601 23.56 14.5201Z" fill="black"/>
<path fill-rule="evenodd" clip-rule="evenodd" d="M28.4133 16.36C28.8058 16.0781 29.1758 15.766 29.52 15.4267C29.6546 15.2782 29.7752 15.1176 29.88 14.9467C29.9866 14.7867 30.08 14.6134 30.1733 14.44C30.3733 14.0134 30.5333 13.6 30.72 13.1867C30.7891 13.0987 30.822 12.9876 30.8121 12.8762C30.8022 12.7647 30.7502 12.6612 30.6666 12.5867C30.5743 12.5244 30.4612 12.5006 30.3516 12.5206C30.242 12.5405 30.1445 12.6025 30.08 12.6934C29.7333 13.0267 29.4133 13.3334 29.0933 13.6934C28.9733 13.84 28.8533 13.9867 28.7467 14.1467C28.617 14.3102 28.5011 14.4842 28.4 14.6667C28.2 15.08 28.0666 15.4934 27.8533 15.8934C27.8191 15.9299 27.7926 15.9728 27.7753 16.0198C27.7581 16.0667 27.7504 16.1166 27.7528 16.1665C27.7552 16.2165 27.7676 16.2654 27.7892 16.3105C27.8109 16.3555 27.8414 16.3958 27.8789 16.4288C27.9164 16.4619 27.9602 16.4871 28.0076 16.5029C28.0551 16.5187 28.1052 16.5248 28.155 16.5209C28.2049 16.517 28.2534 16.5031 28.2978 16.48C28.3422 16.457 28.3814 16.4252 28.4133 16.3867V16.36Z" fill="black"/>
</g>
<defs>
<clipPath id="clip0_1039_405">
<rect width="32" height="32" fill="white" transform="translate(8 8)"/>
</clipPath>
</defs>
</svg>
