<svg width="48" height="48" viewBox="0 0 48 48" fill="none" xmlns="http://www.w3.org/2000/svg">
<g clip-path="url(#clip0_1039_382)">
<path d="M32.7866 20.4133C32.5443 20.2825 32.2751 20.2095 32 20.2C31.3466 20.2 30.3466 20.3866 29.96 20.4133C29.7291 20.3973 29.4975 20.3973 29.2666 20.4133C29.0861 20.4566 28.9232 20.5544 28.8 20.6933C28.48 21.0933 28.3466 21.6933 28.0666 22.1333C28.0229 22.2094 27.9611 22.2736 27.8867 22.3201C27.8123 22.3666 27.7275 22.3941 27.64 22.4C27.32 22.4 27.1333 22.4 27.0266 22.2C26.6266 21.6666 26.52 20.8666 25.8266 20.5733C25.4496 20.4449 25.0503 20.395 24.6533 20.4266C24.0666 20.4266 23.3866 20.5466 22.8666 20.6C22.932 20.4351 22.9855 20.2658 23.0266 20.0933C23.1866 19.2933 23.0266 18.4266 23.2 17.6133L23.44 17.6933C23.6942 17.7534 23.959 17.7534 24.2133 17.6933C25.1526 17.3842 25.933 16.7187 26.3866 15.84C26.557 15.5198 26.6462 15.1627 26.6462 14.8C26.6462 14.4373 26.557 14.0801 26.3866 13.76C26.2787 13.5714 26.1262 13.4121 25.9427 13.296C25.7591 13.1798 25.5499 13.1102 25.3333 13.0933C24.9257 13.0468 24.5142 13.0468 24.1066 13.0933H23.76C23.3987 12.5111 23.1416 11.8704 23 11.2C22.8882 10.7991 22.6928 10.4265 22.4266 10.1066C22.0786 9.82385 21.6713 9.62308 21.2351 9.51921C20.7988 9.41534 20.3448 9.41104 19.9066 9.50664C19.7947 9.51679 19.6908 9.56942 19.6164 9.65372C19.5421 9.73803 19.5028 9.84761 19.5066 9.95997C19.51 10.016 19.5245 10.0709 19.5491 10.1214C19.5737 10.1718 19.6081 10.217 19.6502 10.2541C19.6923 10.2913 19.7414 10.3198 19.7945 10.3379C19.8477 10.3561 19.9039 10.3636 19.96 10.36C20.96 10.36 21.48 10.36 21.76 10.7333C21.9788 11.0469 22.1204 11.4079 22.1733 11.7866C22.3305 12.5176 22.6294 13.2107 23.0533 13.8266C23.1228 13.9185 23.2111 13.9945 23.3122 14.0497C23.4134 14.1048 23.5251 14.1379 23.64 14.1466H24.8933C25.1066 14.1466 25.3333 14.1466 25.4266 14.2933C25.5272 14.5117 25.5606 14.755 25.5226 14.9924C25.4846 15.2298 25.3769 15.4505 25.2133 15.6266C24.8829 16.0752 24.4145 16.4031 23.88 16.56C23.7733 16.56 23.6266 16.56 23.48 16.4666C23.2137 16.4036 22.9388 16.3856 22.6666 16.4133C22.4875 16.4246 22.3172 16.4948 22.1821 16.6129C22.0471 16.7311 21.9549 16.8906 21.92 17.0666C21.6933 17.9733 21.8133 18.96 21.6133 19.88C21.5524 20.125 21.4534 20.359 21.32 20.5733C20.9733 20.5733 20.4133 20.3333 20.3466 20.3333C19.9608 20.2216 19.5616 20.1633 19.16 20.16C18.9664 19.534 18.6883 18.9374 18.3333 18.3866C18.1159 18.0968 17.8341 17.8616 17.5101 17.6996C17.1861 17.5376 16.8289 17.4533 16.4666 17.4533C16.147 17.4339 15.8277 17.4959 15.5385 17.6335C15.2494 17.7711 14.9999 17.9797 14.8133 18.24C14.3914 18.9871 14.1282 19.8132 14.04 20.6666L13.5066 20.76H11.3466C10.8966 20.7587 10.4486 20.7004 10.0133 20.5866C9.67996 20.5066 9.61329 20.2133 9.61329 19.8933C9.69361 19.1153 9.8961 18.3549 10.2133 17.64C10.8362 16.156 11.7892 14.8336 13 13.7733C14.2121 12.679 15.6441 11.8562 17.2 11.36C17.2718 11.3171 17.3272 11.2514 17.3572 11.1734C17.3872 11.0953 17.3902 11.0095 17.3656 10.9295C17.341 10.8496 17.2903 10.7802 17.2216 10.7326C17.1528 10.6849 17.0701 10.6617 16.9866 10.6666C15.3051 11.1398 13.7422 11.9621 12.4 13.08C11.031 14.2076 9.9405 15.6357 9.21329 17.2533C8.71207 18.2449 8.45602 19.3423 8.46663 20.4533C8.50528 20.787 8.64465 21.1009 8.86616 21.3534C9.08768 21.6059 9.38084 21.7849 9.70663 21.8666C10.2205 22.0094 10.7477 22.0987 11.28 22.1333H13.52C13.8707 22.1549 14.2225 22.1549 14.5733 22.1333C14.7321 22.1228 14.8842 22.0652 15.01 21.9678C15.1359 21.8704 15.2299 21.7377 15.28 21.5866C15.3921 20.8133 15.5843 20.0537 15.8533 19.32C15.8954 19.1861 15.9786 19.069 16.0911 18.9852C16.2036 18.9014 16.3397 18.8553 16.48 18.8533C16.6301 18.8528 16.7783 18.8875 16.9126 18.9546C17.0469 19.0218 17.1636 19.1195 17.2533 19.24C17.6038 19.8468 17.8855 20.4907 18.0933 21.16C18.1526 21.2862 18.242 21.3959 18.3536 21.4796C18.4651 21.5633 18.5955 21.6184 18.7333 21.64C19.266 21.6767 19.8006 21.6767 20.3333 21.64C20.4666 21.64 21.3466 21.76 21.6666 21.7466C21.7957 21.7494 21.9237 21.7233 22.0413 21.6702C22.159 21.6171 22.2633 21.5385 22.3466 21.44V21.36C22.8666 21.36 23.7733 21.2666 24.5333 21.28C24.7965 21.2687 25.0593 21.3094 25.3066 21.4C25.6133 21.5466 25.6533 21.88 25.76 22.1733C25.8627 22.5346 26.0607 22.8616 26.3333 23.12C26.6794 23.3966 27.1184 23.5302 27.56 23.4933C27.9597 23.4863 28.3434 23.3348 28.64 23.0666C28.9717 22.657 29.2537 22.2094 29.48 21.7333C30.0133 21.7333 31.7333 21.56 31.7333 21.56C31.7333 21.7866 31.44 23.4266 31.2933 24.08C31.1484 24.7374 30.9704 25.3871 30.76 26.0266L29.3333 30.2666C29.2348 30.6351 29.11 30.996 28.96 31.3466C28.8931 31.5037 28.7876 31.6413 28.6533 31.7466C28.2239 32.0124 27.7415 32.1808 27.24 32.24C26.393 32.3199 25.5403 32.3199 24.6933 32.24H22.8533C22.6535 32.2537 22.4531 32.2537 22.2533 32.24C22.4707 31.7397 22.6101 31.2091 22.6666 30.6666C22.8439 29.679 22.8439 28.6676 22.6666 27.68C22.613 27.5448 22.524 27.4265 22.4091 27.3374C22.2942 27.2483 22.1575 27.1916 22.0133 27.1733L21 27.04C20.6305 26.9779 20.2848 26.8166 20 26.5733C19.8829 26.4766 19.787 26.3569 19.7181 26.2216C19.6493 26.0862 19.6091 25.9382 19.6 25.7866C19.6 25.4133 19.6 25.2133 19.84 25.1733C20.2879 25.1494 20.7369 25.1898 21.1733 25.2933C21.4668 25.3646 21.7731 25.3646 22.0666 25.2933C22.2114 25.2023 22.3311 25.0766 22.4149 24.9275C22.4987 24.7785 22.544 24.6109 22.5466 24.44C22.5952 23.7074 22.5952 22.9725 22.5466 22.24C22.5432 22.1839 22.5288 22.1291 22.5042 22.0786C22.4795 22.0281 22.4451 21.983 22.403 21.9458C22.3609 21.9087 22.3119 21.8802 22.2587 21.862C22.2056 21.8438 22.1493 21.8364 22.0933 21.84C21.9825 21.8468 21.8787 21.8967 21.804 21.9788C21.7293 22.061 21.6896 22.169 21.6933 22.28C21.7358 22.9964 21.709 23.7153 21.6133 24.4266C21.2262 24.3785 20.843 24.3027 20.4666 24.2C20.011 24.1097 19.538 24.1854 19.1333 24.4133C18.9198 24.5801 18.7526 24.7988 18.6475 25.0485C18.5425 25.2983 18.5032 25.5707 18.5333 25.84C18.5352 26.3219 18.6944 26.7901 18.9866 27.1733C19.4165 27.7005 19.9985 28.0823 20.6533 28.2666L21.4533 28.4133C21.512 28.9539 21.512 29.4993 21.4533 30.04C21.4148 30.6806 21.2227 31.3025 20.8933 31.8533C20.8933 31.92 20.76 31.92 20.68 31.9466C20.4017 32.0263 20.1155 32.0754 19.8266 32.0933H18.16C17.5052 32.1104 16.8501 32.0792 16.2 32C15.8341 31.9664 15.4772 31.867 15.1466 31.7066C14.9527 31.6019 14.7878 31.4507 14.6666 31.2666C14.3733 30.8133 14.1466 30.2933 13.8933 29.9333C12.854 28.5462 11.9181 27.0845 11.0933 25.56C10.5627 24.5456 10.1425 23.4773 9.83996 22.3733C9.83422 22.3206 9.81731 22.2697 9.79035 22.224C9.7634 22.1783 9.72702 22.1389 9.68363 22.1083C9.64024 22.0778 9.59085 22.0569 9.53874 22.047C9.48664 22.037 9.43301 22.0383 9.38144 22.0507C9.32986 22.0631 9.28153 22.0864 9.23965 22.119C9.19777 22.1515 9.16332 22.1926 9.13857 22.2396C9.11383 22.2865 9.09938 22.3381 9.09617 22.3911C9.09296 22.444 9.10107 22.4971 9.11996 22.5466C9.36692 23.7255 9.75179 24.8711 10.2666 25.96C11.044 27.5767 11.9351 29.1361 12.9333 30.6266C13.2133 31.0533 13.44 31.7066 13.7733 32.2133C13.9627 32.5117 14.2182 32.7626 14.52 32.9466C14.9822 33.1902 15.4828 33.3526 16 33.4266L16.6266 33.5066V34.48C16.6344 34.7594 16.6931 35.035 16.8 35.2933C16.9146 35.5705 17.0982 35.8137 17.3333 36L17.5733 36.1333C17.5668 36.173 17.5668 36.2136 17.5733 36.2533C17.6228 37.0289 17.8412 37.7843 18.2133 38.4666C18.515 38.9705 18.9545 39.3776 19.48 39.64C20.1157 39.9202 20.8078 40.0492 21.5019 40.0169C22.196 39.9845 22.873 39.7916 23.48 39.4533C24.1196 39.1396 24.6332 38.6174 24.9362 37.9727C25.2391 37.3279 25.3134 36.5992 25.1466 35.9066C25.3563 35.8059 25.5532 35.6806 25.7333 35.5333C26.0319 35.2506 26.269 34.9093 26.4296 34.5307C26.5902 34.1522 26.6709 33.7445 26.6666 33.3333H27.3866C28.057 33.2775 28.7075 33.0773 29.2933 32.7466C29.6146 32.5481 29.8769 32.2673 30.0533 31.9333C30.2427 31.544 30.4075 31.1433 30.5466 30.7333C30.9333 29.76 31.3733 28.8 31.76 27.8266C31.9333 27.3866 32.0933 26.96 32.24 26.4933C32.4666 25.8133 32.6666 25.16 32.8266 24.4133C32.9854 23.702 33.0923 22.9801 33.1466 22.2533C33.1895 21.8322 33.1895 21.4078 33.1466 20.9866C33.1282 20.8718 33.0868 20.7619 33.0249 20.6634C32.9631 20.5649 32.882 20.4798 32.7866 20.4133ZM23.36 37.9866C22.8673 38.3045 22.3042 38.4968 21.72 38.5466C21.142 38.6265 20.5533 38.5718 20 38.3866C19.5678 38.2481 19.1961 37.9658 18.9466 37.5866C18.7242 37.2351 18.5536 36.8534 18.44 36.4533H18.52C19.0536 36.5386 19.5929 36.5831 20.1333 36.5866C20.92 36.5866 21.7066 36.4933 22.4533 36.44C23.076 36.3894 23.6949 36.3004 24.3066 36.1733C24.3197 36.5317 24.2394 36.8874 24.0734 37.2053C23.9074 37.5232 23.6615 37.7925 23.36 37.9866ZM25.0266 34.6666C24.1929 35.0475 23.2675 35.1817 22.36 35.0533C21.5066 35.12 20.6133 35.1866 19.6933 35.2C19.3336 35.22 18.973 35.22 18.6133 35.2C18.4115 35.1898 18.213 35.1447 18.0266 35.0666C17.8633 35.0181 17.7189 34.9203 17.6133 34.7866C17.5174 34.6005 17.4628 34.3958 17.4533 34.1866C17.4404 33.969 17.4404 33.7509 17.4533 33.5333H18.1333C18.9759 33.5533 19.8187 33.5043 20.6533 33.3866C21.0435 33.3134 21.4125 33.154 21.7333 32.92C21.7922 32.9907 21.8713 33.0419 21.96 33.0666C22.2417 33.1189 22.5269 33.1501 22.8133 33.16H24.6266L25.76 33.2666C25.7408 33.5379 25.6658 33.8023 25.5396 34.0433C25.4134 34.2842 25.2387 34.4964 25.0266 34.6666Z" fill="black"/>
<path d="M39.4399 13.7334C39.219 13.1399 38.9607 12.5609 38.6666 12.0001C38.2727 11.0945 37.6758 10.2916 36.9221 9.65348C36.1684 9.01537 35.2781 8.55915 34.3199 8.32009C32.4673 7.85065 30.5215 7.89676 28.6932 8.45342C28.6387 8.46874 28.5877 8.49477 28.5433 8.52999C28.499 8.56522 28.462 8.60893 28.4347 8.65858C28.4074 8.70823 28.3903 8.76282 28.3843 8.81916C28.3783 8.87551 28.3836 8.93248 28.3999 8.98675C28.4338 9.09207 28.5062 9.18075 28.6025 9.23511C28.6989 9.28947 28.8122 9.30553 28.9199 9.28009C30.5902 8.81366 32.3563 8.81366 34.0266 9.28009C34.8231 9.49832 35.558 9.89854 36.1735 10.4492C36.7889 10.9999 37.2681 11.686 37.5732 12.4534C37.6666 12.6801 37.8799 13.1468 38.0399 13.6134C38.1999 14.0801 38.3066 14.2268 38.2532 14.4001C38.1999 14.5734 38.0799 14.5468 37.9732 14.6268C37.6666 14.8268 37.2799 15.0134 36.9732 15.2001C36.7852 15.3179 36.6147 15.4615 36.4666 15.6268C36.3883 15.7131 36.3279 15.8141 36.289 15.924C36.2501 16.0339 36.2334 16.1504 36.2399 16.2668C36.2399 16.4801 36.3332 16.8268 36.3332 16.9868C36.3173 17.2872 36.2305 17.5796 36.0799 17.8401C36.0419 17.9342 35.9802 18.0168 35.9007 18.0799C35.8213 18.143 35.7268 18.1844 35.6266 18.2001C35.3199 18.2001 35.1866 18.0134 35.0532 17.8134C34.8605 17.4864 34.6373 17.1784 34.3866 16.8934C34.1501 16.6381 33.8443 16.4574 33.5066 16.3734C33.2922 16.3192 33.0676 16.3192 32.8532 16.3734C32.3699 16.564 31.9018 16.7913 31.4532 17.0534C31.341 17.1196 31.2198 17.169 31.0932 17.2001C31.0932 17.2001 31.0266 17.2001 30.9999 17.2001C30.8975 17.0573 30.8082 16.9056 30.7332 16.7468C30.5066 16.2534 30.3332 15.6668 30.1199 15.2401L30.0266 15.0534C30.708 14.6552 31.2948 14.1139 31.7466 13.4668C31.9728 13.117 32.0587 12.6947 31.987 12.2843C31.9153 11.874 31.6913 11.5058 31.3599 11.2534C31.1931 11.0889 30.9952 10.9594 30.7777 10.8724C30.5601 10.7854 30.3275 10.7427 30.0932 10.7468C29.3971 10.882 28.7176 11.0921 28.0666 11.3734L27.9999 11.1468L27.2532 9.08009C27.2196 8.98461 27.1495 8.90639 27.0582 8.86263C26.967 8.81887 26.862 8.81316 26.7666 8.84675C26.6711 8.88035 26.5929 8.95049 26.5491 9.04176C26.5053 9.13303 26.4996 9.23794 26.5332 9.33342L27.1866 11.4268C27.1866 11.4268 27.3066 11.8534 27.3732 12.0001C27.4085 12.0913 27.4709 12.1696 27.5519 12.2244C27.6329 12.2792 27.7288 12.3079 27.8266 12.3068C28.4799 12.3068 29.1599 11.8534 29.8399 11.7468C29.9877 11.7101 30.1427 11.7143 30.2883 11.7589C30.4339 11.8035 30.5647 11.8869 30.6666 12.0001C30.7984 12.1096 30.886 12.2632 30.913 12.4325C30.9399 12.6017 30.9045 12.775 30.8132 12.9201C30.3199 13.5289 29.7015 14.0245 28.9999 14.3734C28.8912 14.4352 28.8029 14.5275 28.746 14.6388C28.6892 14.7502 28.6662 14.8758 28.6799 15.0001C28.7458 15.3006 28.8488 15.5917 28.9866 15.8668C29.1732 16.2934 29.3332 16.8801 29.5332 17.3868C29.6454 17.6516 29.7887 17.9023 29.9599 18.1334C30.0854 18.3008 30.2486 18.4363 30.4362 18.529C30.6239 18.6216 30.8307 18.6688 31.0399 18.6668C31.5724 18.6077 32.0838 18.4251 32.5332 18.1334C32.7999 17.9868 33.2399 17.8134 33.2399 17.8134C33.4243 17.9705 33.578 18.1603 33.6932 18.3734C33.8777 18.6854 34.1018 18.9723 34.3599 19.2268C34.5484 19.3999 34.7729 19.5291 35.0172 19.6052C35.2616 19.6813 35.5198 19.7023 35.7732 19.6668C36.0375 19.6394 36.293 19.5563 36.5228 19.423C36.7526 19.2897 36.9516 19.1092 37.1066 18.8934C37.5021 18.3595 37.7253 17.7176 37.7466 17.0534C37.78 16.8325 37.78 16.6077 37.7466 16.3868C38.1199 16.1201 38.6799 15.8668 39.0799 15.5601C39.2858 15.3777 39.4457 15.1493 39.5466 14.8934C39.6294 14.5049 39.5922 14.1003 39.4399 13.7334Z" fill="black"/>
</g>
<defs>
<clipPath id="clip0_1039_382">
<rect width="32" height="32" fill="white" transform="translate(8 8)"/>
</clipPath>
</defs>
</svg>
